<svg id="Layer_2" data-name="Layer 2" xmlns="http://www.w3.org/2000/svg" xmlns:xlink="http://www.w3.org/1999/xlink" viewBox="0 0 100 100"><defs><style>.cls-1,.cls-2,.cls-3,.cls-4{fill:none;stroke-linecap:round;stroke-miterlimit:10;stroke-width:3px;}.cls-1{stroke:url(#linear-gradient);}.cls-2{stroke:url(#linear-gradient-2);}.cls-3{stroke:url(#linear-gradient-3);}.cls-4{stroke:url(#linear-gradient-4);}</style><linearGradient id="linear-gradient" x1="35.7" y1="50" x2="32.7" y2="50" gradientUnits="userSpaceOnUse"><stop offset="0" stop-color="#80cfff"/><stop offset="1" stop-color="#83ffde"/></linearGradient><linearGradient id="linear-gradient-2" x1="48.5" y1="41.78" x2="61.47" y2="41.78" xlink:href="#linear-gradient"/><linearGradient id="linear-gradient-3" x1="34.48" y1="56.3" x2="55.55" y2="56.3" gradientTransform="matrix(-1, 0, 0, 1, 100, 0)" xlink:href="#linear-gradient"/><linearGradient id="linear-gradient-4" x1="22.21" y1="50" x2="77.79" y2="50" xlink:href="#linear-gradient"/></defs><title>contact</title><line class="cls-1" x1="34.2" y1="18.18" x2="34.2" y2="81.82"/><circle class="cls-2" cx="54.99" cy="41.78" r="4.99"/><path class="cls-3" d="M64,58.35a3.34,3.34,0,0,0-.23-1.25C62.51,53.89,60,50.71,55,50.71s-7.53,3.18-8.81,6.39A3.38,3.38,0,0,0,46,58.35h0A3.55,3.55,0,0,0,49.5,61.9h11A3.55,3.55,0,0,0,64,58.35Z"/><rect class="cls-4" x="23.71" y="18.18" width="52.58" height="63.64" rx="6.89" ry="6.89"/></svg>