<svg id="Layer_2" data-name="Layer 2" xmlns="http://www.w3.org/2000/svg" xmlns:xlink="http://www.w3.org/1999/xlink" viewBox="0 0 100 100"><defs><style>.cls-1{fill:none;stroke-linecap:round;stroke-linejoin:round;stroke-width:3px;stroke:url(#linear-gradient);}</style><linearGradient id="linear-gradient" x1="30.78" y1="62.38" x2="65.58" y2="62.38" gradientTransform="translate(-12.38 98.18) rotate(-90)" gradientUnits="userSpaceOnUse"><stop offset="0" stop-color="#80cfff"/><stop offset="1" stop-color="#83ffde"/></linearGradient></defs><title>back_to_69</title><path class="cls-1" d="M46.45,34.1,31.3,45.23,46.45,56.37V50.42a5.19,5.19,0,0,0,1.41-.08,15.88,15.88,0,0,1,6.44,0,17.37,17.37,0,0,1,6.35,2.75,18.6,18.6,0,0,1,5.08,5.39,19.66,19.66,0,0,1,2.73,7.4,21,21,0,0,0-.4-8.37,22.5,22.5,0,0,0-3.85-8,23.65,23.65,0,0,0-7-6.17,24.76,24.76,0,0,0-9.33-3.12l-.39,0a5,5,0,0,0-1,0Z"/></svg>