<svg xmlns="http://www.w3.org/2000/svg" viewBox="0 0 1642.26 692" preserveAspectRatio="none"><defs><style>.cls-1{fill:#00223d;stroke:#007acc;stroke-miterlimit:10;opacity:0.5;}</style></defs><title>double_fish</title><g id="Layer_2" data-name="Layer 2"><g id="Layer_1-2" data-name="Layer 1"><path class="cls-1" d="M1628,116.31l4.69-4.69a31.14,31.14,0,0,0,9.12-22V50.53a31.16,31.16,0,0,0-9.12-22L1614,9.88a31.11,31.11,0,0,0-22-9.13h-30a31.15,31.15,0,0,0-22,9.13A31.14,31.14,0,0,1,1518,19h-135.7a31.18,31.18,0,0,1-22-9.12l-.25-.26A31.14,31.14,0,0,0,1338,.5H304.28a31.16,31.16,0,0,0-22,9.12l-.25.26A31.16,31.16,0,0,1,260,19H124.28a31.16,31.16,0,0,1-22-9.12,31.13,31.13,0,0,0-22-9.13H50.28a31.13,31.13,0,0,0-22,9.13L9.62,28.5a31.16,31.16,0,0,0-9.12,22V89.6a31.14,31.14,0,0,0,9.12,22l4.69,4.69a31.15,31.15,0,0,1,9.13,22V194.6a31.11,31.11,0,0,1-9.13,22l-3.78,3.79a31.14,31.14,0,0,0-9.12,22V449.56a31.14,31.14,0,0,0,9.12,22l3.78,3.79a31.11,31.11,0,0,1,9.13,22v56.26a31.15,31.15,0,0,1-9.13,22l-4.69,4.69a31.14,31.14,0,0,0-9.12,22v39.07a31.16,31.16,0,0,0,9.12,22l18.63,18.62a31.13,31.13,0,0,0,22,9.13H80.22a31.13,31.13,0,0,0,22-9.13,31.16,31.16,0,0,1,22-9.12H260a31.16,31.16,0,0,1,22,9.12l.25.26a31.16,31.16,0,0,0,22,9.12H1338a31.14,31.14,0,0,0,22-9.12l.25-.26a31.18,31.18,0,0,1,22-9.12H1518a31.14,31.14,0,0,1,22,9.12,31.15,31.15,0,0,0,22,9.13h30a31.11,31.11,0,0,0,22-9.13l18.63-18.62a31.16,31.16,0,0,0,9.12-22V602.4a31.14,31.14,0,0,0-9.12-22l-4.69-4.69a31.18,31.18,0,0,1-9.12-22V497.4a31.14,31.14,0,0,1,9.12-22l3.78-3.79a31.11,31.11,0,0,0,9.13-22V242.44a31.11,31.11,0,0,0-9.13-22l-3.78-3.79a31.14,31.14,0,0,1-9.12-22V138.34A31.18,31.18,0,0,1,1628,116.31Z"/></g></g></svg>