<svg xmlns="http://www.w3.org/2000/svg" xmlns:xlink="http://www.w3.org/1999/xlink" viewBox="0 0 200 200"><defs><style>.cls-1{fill:#8dd6ff;opacity:0.17;}.cls-1,.cls-2{stroke:#007acc;stroke-miterlimit:10;}.cls-2{fill:#8faaff;opacity:0.2;}.cls-3,.cls-9{fill:#fff;}.cls-3{opacity:0.16;}.cls-4,.cls-5,.cls-6,.cls-7,.cls-8{fill:none;stroke-linecap:round;stroke-linejoin:round;stroke-width:3px;}.cls-4{stroke:url(#linear-gradient);}.cls-5{stroke:url(#linear-gradient-2);}.cls-6{stroke:url(#linear-gradient-3);}.cls-7{stroke:url(#linear-gradient-4);}.cls-8{stroke:url(#linear-gradient-5);}</style><linearGradient id="linear-gradient" x1="-6571.58" y1="-2997.56" x2="-6568.58" y2="-2997.56" gradientTransform="translate(-6488.17 -2901.22) rotate(180)" gradientUnits="userSpaceOnUse"><stop offset="0" stop-color="#80cfff"/><stop offset="1" stop-color="#83ffde"/></linearGradient><linearGradient id="linear-gradient-2" x1="2902.34" y1="-1769.04" x2="2943.51" y2="-1769.04" gradientTransform="translate(-3217.97 -737.42) rotate(45)" xlink:href="#linear-gradient"/><linearGradient id="linear-gradient-3" x1="2902.34" y1="-1769.04" x2="2943.51" y2="-1769.04" gradientTransform="translate(-2823.18 1847.54)" xlink:href="#linear-gradient"/><linearGradient id="linear-gradient-4" x1="-6582.24" y1="-2997.56" x2="-6557.92" y2="-2997.56" xlink:href="#linear-gradient"/><linearGradient id="linear-gradient-5" x1="-6579.12" y1="-2997.56" x2="-6561.04" y2="-2997.56" xlink:href="#linear-gradient"/></defs><title>brain_freeze</title><g id="Layer_2" data-name="Layer 2"><polygon class="cls-1" points="174.25 10 100.25 10 26.25 10 9.75 26.5 9.75 78 9.75 129.5 26.25 146 100.25 146 174.25 146 190.75 129.5 190.75 78 190.75 26.5 174.25 10"/><polygon class="cls-2" points="172.25 151 99.25 151 26.25 151 9.25 168 9.25 170.5 9.25 173 26.25 190 99.25 190 172.25 190 189.25 173 189.25 170.5 189.25 168 172.25 151"/><path class="cls-3" d="M86.26,65,62.34,88.92a19.09,19.09,0,0,0,0,27h0a19.09,19.09,0,0,0,27,0L113.24,92Z"/><line class="cls-4" x1="81.91" y1="85.68" x2="81.91" y2="107"/><line class="cls-5" x1="86.26" y1="65.01" x2="113.24" y2="91.99"/><rect class="cls-6" x="80.67" y="25.59" width="38.17" height="105.81" rx="19.08" ry="19.08" transform="translate(84.72 -47.54) rotate(45)"/><line class="cls-7" x1="92.57" y1="96.34" x2="71.25" y2="96.34"/><line class="cls-8" x1="74.37" y1="103.88" x2="89.45" y2="88.8"/><line class="cls-8" x1="89.45" y1="103.88" x2="74.37" y2="88.8"/><path class="cls-9" d="M49.83,176.94a3.72,3.72,0,0,1-.8,1.19,3.59,3.59,0,0,1-1.19.79,3.51,3.51,0,0,1-1.45.29H41.6V164.08h4.79a3.51,3.51,0,0,1,1.45.29,3.62,3.62,0,0,1,1.19.8,3.57,3.57,0,0,1,.8,1.18,3.75,3.75,0,0,1,.29,1.45V168a3.88,3.88,0,0,1-.14,1,3.57,3.57,0,0,1-.41.91,4.19,4.19,0,0,1-.62.77,3.43,3.43,0,0,1-.8.57,3.8,3.8,0,0,1,.8.58,4.19,4.19,0,0,1,.62.77,3.8,3.8,0,0,1,.41.92,3.88,3.88,0,0,1,.14,1v1A3.67,3.67,0,0,1,49.83,176.94Zm-1.07-9.14a2.47,2.47,0,0,0-.19-.94,2.41,2.41,0,0,0-.53-.77,2.41,2.41,0,0,0-1.71-.71H43v5.21h3.37a2.26,2.26,0,0,0,.94-.19,2.51,2.51,0,0,0,1.3-1.29,2.48,2.48,0,0,0,.19-1Zm0,6.51a2.48,2.48,0,0,0-.19-.95,2.26,2.26,0,0,0-.53-.76,2.43,2.43,0,0,0-.77-.52,2.26,2.26,0,0,0-.94-.19H43v6h3.37a2.41,2.41,0,0,0,1.71-.71,2.3,2.3,0,0,0,.53-.77,2.43,2.43,0,0,0,.19-.94Z"/><path class="cls-9" d="M59.83,179.21l-4.11-6.46H53.86v6.46H52.49V164.08H57.3a3.5,3.5,0,0,1,1.44.29,3.78,3.78,0,0,1,2,2A3.75,3.75,0,0,1,61,167.8V169a3.72,3.72,0,0,1-1.09,2.64,3.55,3.55,0,0,1-1.18.79,3.5,3.5,0,0,1-1.44.29l4.1,6.46Zm-.18-11.41a2.29,2.29,0,0,0-.19-.94,2.55,2.55,0,0,0-.52-.77,2.34,2.34,0,0,0-.76-.52,2.3,2.3,0,0,0-1-.19H53.86v6.08h3.37a2.48,2.48,0,0,0,1-.19,2.37,2.37,0,0,0,.76-.53,2.55,2.55,0,0,0,.52-.77,2.26,2.26,0,0,0,.19-.94Z"/><path class="cls-9" d="M69.68,175.69H64.89l-1,3.52H62.48l4.43-15.13h.72l4.45,15.13h-1.4Zm-4.42-1.3h4.06l-2-7,0-.56,0,.56Z"/><path class="cls-9" d="M74,179.21V164.08h1.36v15.13Z"/><path class="cls-9" d="M86.65,179.21l-6.31-11-.13-.65v11.67H78.85V164.08h.71l6.31,11,.14.64V164.08h1.36v15.13Z"/><path class="cls-9" d="M97.16,165.38V171H103v1.3h-5.8v6.91H95.8V164.08h8.52v1.3Z"/><path class="cls-9" d="M113.6,179.21l-4.11-6.46h-1.87v6.46h-1.36V164.08h4.8a3.51,3.51,0,0,1,1.45.29,3.78,3.78,0,0,1,2,2,3.75,3.75,0,0,1,.29,1.45V169a3.72,3.72,0,0,1-1.09,2.64,3.55,3.55,0,0,1-1.18.79,3.51,3.51,0,0,1-1.45.29l4.11,6.46Zm-.18-11.41a2.29,2.29,0,0,0-.19-.94,2.55,2.55,0,0,0-.52-.77,2.36,2.36,0,0,0-1.71-.71h-3.38v6.08H111a2.52,2.52,0,0,0,1-.19,2.37,2.37,0,0,0,.76-.53,2.55,2.55,0,0,0,.52-.77,2.26,2.26,0,0,0,.19-.94Z"/><path class="cls-9" d="M117.77,179.21V164.08h8.52v1.3h-7.16V171h5.79v1.3h-5.79v5.62h7.16v1.29Z"/><path class="cls-9" d="M128.88,179.21V164.08h8.52v1.3h-7.16V171H136v1.3h-5.8v5.62h7.16v1.29Z"/><path class="cls-9" d="M139.13,179.21v-.64l6.75-13.19h-6.54v-1.3h8.31v.65l-6.75,13.19h6.75v1.29Z"/><path class="cls-9" d="M150.25,179.21V164.08h8.51v1.3h-7.15V171h5.79v1.3h-5.79v5.62h7.15v1.29Z"/></g></svg>