<svg xmlns="http://www.w3.org/2000/svg" xmlns:xlink="http://www.w3.org/1999/xlink" viewBox="0 0 200 200"><defs><style>.cls-1{fill:#8dd6ff;opacity:0.17;}.cls-1,.cls-2{stroke:#007acc;stroke-miterlimit:10;}.cls-2{fill:#8faaff;opacity:0.2;}.cls-10,.cls-11,.cls-12,.cls-13,.cls-14,.cls-15,.cls-16,.cls-17,.cls-18,.cls-19,.cls-20,.cls-21,.cls-22,.cls-23,.cls-24,.cls-3,.cls-4,.cls-5,.cls-6,.cls-7,.cls-8,.cls-9{fill:none;stroke-linecap:round;stroke-linejoin:round;stroke-width:3px;}.cls-3{stroke:url(#linear-gradient);}.cls-4{stroke:url(#linear-gradient-2);}.cls-5{stroke:url(#linear-gradient-3);}.cls-6{stroke:url(#linear-gradient-4);}.cls-7{stroke:url(#linear-gradient-5);}.cls-8{stroke:url(#linear-gradient-6);}.cls-9{stroke:url(#linear-gradient-7);}.cls-10{stroke:url(#linear-gradient-8);}.cls-11{stroke:url(#linear-gradient-9);}.cls-12{stroke:url(#linear-gradient-10);}.cls-13{stroke:url(#linear-gradient-11);}.cls-14{stroke:url(#linear-gradient-12);}.cls-15{stroke:url(#linear-gradient-13);}.cls-16{stroke:url(#linear-gradient-14);}.cls-17{stroke:url(#linear-gradient-15);}.cls-18{stroke:url(#linear-gradient-16);}.cls-19{stroke:url(#linear-gradient-17);}.cls-20{stroke:url(#linear-gradient-18);}.cls-21{stroke:url(#linear-gradient-19);}.cls-22{stroke:url(#linear-gradient-20);}.cls-23{stroke:url(#linear-gradient-21);}.cls-24{stroke:url(#linear-gradient-22);}.cls-25{fill:#fff;}</style><linearGradient id="linear-gradient" x1="-425.57" y1="-1563.1" x2="-422.57" y2="-1563.1" gradientTransform="matrix(0.71, 0.71, -0.68, 0.68, -633.8, 1454.32)" gradientUnits="userSpaceOnUse"><stop offset="0" stop-color="#80cfff"/><stop offset="1" stop-color="#83ffde"/></linearGradient><linearGradient id="linear-gradient-2" x1="136.75" y1="125.5" x2="139.75" y2="125.5" gradientTransform="translate(-18.19 -10.02)" xlink:href="#linear-gradient"/><linearGradient id="linear-gradient-3" x1="-442.1" y1="-1531.55" x2="-406.05" y2="-1531.55" gradientTransform="translate(568.81 1607.62)" xlink:href="#linear-gradient"/><linearGradient id="linear-gradient-4" x1="-442.1" y1="-1540.65" x2="-428.73" y2="-1540.65" gradientTransform="translate(-638.37 1458.9) rotate(45)" xlink:href="#linear-gradient"/><linearGradient id="linear-gradient-5" x1="-442.1" y1="-1531.55" x2="-428.73" y2="-1531.55" gradientTransform="translate(-638.37 1458.9) rotate(45)" xlink:href="#linear-gradient"/><linearGradient id="linear-gradient-6" x1="-442.1" y1="-1522.46" x2="-428.73" y2="-1522.46" gradientTransform="translate(-638.37 1458.9) rotate(45)" xlink:href="#linear-gradient"/><linearGradient id="linear-gradient-7" x1="-419.42" y1="-1540.65" x2="-406.05" y2="-1540.65" gradientTransform="translate(-638.37 1458.9) rotate(45)" xlink:href="#linear-gradient"/><linearGradient id="linear-gradient-8" x1="-419.42" y1="-1531.55" x2="-406.05" y2="-1531.55" gradientTransform="translate(-638.37 1458.9) rotate(45)" xlink:href="#linear-gradient"/><linearGradient id="linear-gradient-9" x1="-419.42" y1="-1522.46" x2="-406.05" y2="-1522.46" gradientTransform="translate(-638.37 1458.9) rotate(45)" xlink:href="#linear-gradient"/><linearGradient id="linear-gradient-10" x1="-430.51" y1="-1496.66" x2="-417.64" y2="-1496.66" gradientTransform="translate(-638.37 1458.9) rotate(45)" xlink:href="#linear-gradient"/><linearGradient id="linear-gradient-11" x1="-3291.87" y1="1424.45" x2="-3288.87" y2="1424.45" gradientTransform="matrix(-0.71, 0.71, 0.68, 0.68, -3220.25, 1454.32)" xlink:href="#linear-gradient"/><linearGradient id="linear-gradient-12" x1="-3916.8" y1="125.5" x2="-3913.8" y2="125.5" gradientTransform="matrix(-1, 0, 0, 1, -3835.86, -10.02)" xlink:href="#linear-gradient"/><linearGradient id="linear-gradient-13" x1="-3308.39" y1="1334.74" x2="-3272.34" y2="1334.74" gradientTransform="matrix(1, 0, 0, -1, 3345.13, 1410.8)" xlink:href="#linear-gradient"/><linearGradient id="linear-gradient-14" x1="-3308.39" y1="1325.65" x2="-3295.02" y2="1325.65" gradientTransform="matrix(-0.71, 0.71, 0.71, 0.71, -3215.68, 1458.9)" xlink:href="#linear-gradient"/><linearGradient id="linear-gradient-15" x1="-3308.39" y1="1334.74" x2="-3295.02" y2="1334.74" gradientTransform="matrix(-0.71, 0.71, 0.71, 0.71, -3215.68, 1458.9)" xlink:href="#linear-gradient"/><linearGradient id="linear-gradient-16" x1="-3308.39" y1="1343.83" x2="-3295.02" y2="1343.83" gradientTransform="matrix(-0.71, 0.71, 0.71, 0.71, -3215.68, 1458.9)" xlink:href="#linear-gradient"/><linearGradient id="linear-gradient-17" x1="-3285.71" y1="1325.65" x2="-3272.34" y2="1325.65" gradientTransform="matrix(-0.71, 0.71, 0.71, 0.71, -3215.68, 1458.9)" xlink:href="#linear-gradient"/><linearGradient id="linear-gradient-18" x1="-3285.71" y1="1334.74" x2="-3272.34" y2="1334.74" gradientTransform="matrix(-0.71, 0.71, 0.71, 0.71, -3215.68, 1458.9)" xlink:href="#linear-gradient"/><linearGradient id="linear-gradient-19" x1="-3285.71" y1="1343.83" x2="-3272.34" y2="1343.83" gradientTransform="matrix(-0.71, 0.71, 0.71, 0.71, -3215.68, 1458.9)" xlink:href="#linear-gradient"/><linearGradient id="linear-gradient-20" x1="-3296.8" y1="1369.64" x2="-3283.93" y2="1369.64" gradientTransform="matrix(-0.71, 0.71, 0.71, 0.71, -3215.68, 1458.9)" xlink:href="#linear-gradient"/><linearGradient id="linear-gradient-21" x1="145.17" y1="113.29" x2="118.75" y2="139.71" gradientTransform="matrix(1, 0, 0, 1, 0, 0)" xlink:href="#linear-gradient"/><linearGradient id="linear-gradient-22" x1="80.74" y1="113.3" x2="54.33" y2="139.7" gradientTransform="matrix(1, 0, 0, 1, 0, 0)" xlink:href="#linear-gradient"/></defs><title>crossfire</title><g id="Layer_2" data-name="Layer 2"><polygon class="cls-1" points="174.25 10 100.25 10 26.25 10 9.75 26.5 9.75 78 9.75 129.5 26.25 146 100.25 146 174.25 146 190.75 129.5 190.75 78 190.75 26.5 174.25 10"/><polygon class="cls-2" points="172.25 151 99.25 151 26.25 151 9.25 168 9.25 170.5 9.25 173 26.25 190 99.25 190 172.25 190 189.25 173 189.25 170.5 189.25 168 172.25 151"/><line class="cls-3" x1="129.96" y1="90.83" x2="123.55" y2="97.25"/><line class="cls-4" x1="120.06" y1="106.19" x2="120.06" y2="124.77"/><rect class="cls-5" x="128.21" y="55.13" width="33.05" height="41.85" rx="7.18" ry="7.18" transform="translate(96.17 -80.06) rotate(45)"/><line class="cls-6" x1="139.48" y1="57.95" x2="146.81" y2="65.28"/><line class="cls-7" x1="133.05" y1="64.38" x2="140.38" y2="71.71"/><line class="cls-8" x1="126.62" y1="70.81" x2="133.95" y2="78.14"/><line class="cls-9" x1="155.52" y1="73.99" x2="162.85" y2="81.32"/><line class="cls-10" x1="149.09" y1="80.42" x2="156.42" y2="87.75"/><line class="cls-11" x1="142.66" y1="86.84" x2="149.99" y2="94.17"/><circle class="cls-12" cx="120.06" cy="100.74" r="4.94"/><line class="cls-13" x1="69.54" y1="90.83" x2="75.95" y2="97.25"/><line class="cls-14" x1="79.44" y1="106.19" x2="79.44" y2="124.77"/><rect class="cls-15" x="38.24" y="55.13" width="33.05" height="41.85" rx="7.18" ry="7.18" transform="translate(147.28 91.12) rotate(135)"/><line class="cls-16" x1="60.02" y1="57.95" x2="52.69" y2="65.28"/><line class="cls-17" x1="66.45" y1="64.38" x2="59.12" y2="71.71"/><line class="cls-18" x1="72.88" y1="70.81" x2="65.55" y2="78.14"/><line class="cls-19" x1="43.98" y1="73.99" x2="36.65" y2="81.32"/><line class="cls-20" x1="50.41" y1="80.42" x2="43.08" y2="87.75"/><line class="cls-21" x1="56.84" y1="86.84" x2="49.51" y2="94.17"/><circle class="cls-22" cx="79.44" cy="100.74" r="4.94"/><line class="cls-23" x1="107.66" y1="126.5" x2="156.25" y2="126.5"/><line class="cls-24" x1="43.25" y1="126.5" x2="91.82" y2="126.5"/><path class="cls-25" d="M62.24,177.16a3.78,3.78,0,0,1-2,2,3.71,3.71,0,0,1-1.45.28H57.73a3.61,3.61,0,0,1-2.63-1.08,3.68,3.68,0,0,1-.8-1.18,3.72,3.72,0,0,1-.29-1.45v-8.13a3.67,3.67,0,0,1,.29-1.44,3.69,3.69,0,0,1,2-2,3.58,3.58,0,0,1,1.45-.29h1.08a3.54,3.54,0,0,1,1.45.29,3.82,3.82,0,0,1,1.18.79,3.89,3.89,0,0,1,.8,1.19,3.67,3.67,0,0,1,.29,1.44v.61l-1.36.22v-.83a2.47,2.47,0,0,0-.19-.94,2.55,2.55,0,0,0-.52-.77,2.35,2.35,0,0,0-.77-.51,2.26,2.26,0,0,0-.94-.19h-1a2.46,2.46,0,0,0-1.72.7,2.55,2.55,0,0,0-.52.77,2.29,2.29,0,0,0-.19.94v8.13a2.34,2.34,0,0,0,.19.95,2.51,2.51,0,0,0,.52.76,2.41,2.41,0,0,0,.77.53,2.52,2.52,0,0,0,.95.19h1a2.36,2.36,0,0,0,1.71-.72,2.36,2.36,0,0,0,.71-1.71v-.82l1.36.22v.6A3.72,3.72,0,0,1,62.24,177.16Z"/><path class="cls-25" d="M72.67,179.21l-4.11-6.45H66.7v6.45H65.34V164.08h4.8a3.5,3.5,0,0,1,1.44.29,3.69,3.69,0,0,1,2,2,3.58,3.58,0,0,1,.29,1.45V169a3.54,3.54,0,0,1-.29,1.45,3.86,3.86,0,0,1-.79,1.19,3.69,3.69,0,0,1-1.19.79,3.51,3.51,0,0,1-1.44.3l4.1,6.45Zm-.18-11.41a2.29,2.29,0,0,0-.19-.94,2.38,2.38,0,0,0-.52-.77,2.24,2.24,0,0,0-.76-.52,2.3,2.3,0,0,0-1-.19H66.7v6.08h3.37a2.48,2.48,0,0,0,1-.19A2.45,2.45,0,0,0,72.49,169Z"/><path class="cls-25" d="M84.85,177.16a3.78,3.78,0,0,1-2,2,3.71,3.71,0,0,1-1.45.28H80.34a3.61,3.61,0,0,1-2.63-1.08,3.68,3.68,0,0,1-.8-1.18,3.72,3.72,0,0,1-.29-1.45v-8.13a3.67,3.67,0,0,1,.29-1.44,3.69,3.69,0,0,1,2-2,3.58,3.58,0,0,1,1.45-.29h1.08a3.54,3.54,0,0,1,1.45.29,3.82,3.82,0,0,1,1.18.79,3.89,3.89,0,0,1,.8,1.19,3.67,3.67,0,0,1,.29,1.44v8.13A3.72,3.72,0,0,1,84.85,177.16Zm-1.08-9.58a2.29,2.29,0,0,0-.19-.94,2.32,2.32,0,0,0-1.28-1.28,2.26,2.26,0,0,0-.94-.19h-1a2.3,2.3,0,0,0-1,.19,2.35,2.35,0,0,0-.77.51,2.55,2.55,0,0,0-.52.77,2.29,2.29,0,0,0-.19.94v8.13a2.34,2.34,0,0,0,.19.95,2.51,2.51,0,0,0,.52.76,2.41,2.41,0,0,0,.77.53,2.48,2.48,0,0,0,1,.19h1a2.36,2.36,0,0,0,1.71-.72,2.31,2.31,0,0,0,.51-.76,2.34,2.34,0,0,0,.19-.95Z"/><path class="cls-25" d="M96.68,175.71a3.4,3.4,0,0,1-.31,1.45,3.77,3.77,0,0,1-.83,1.18,3.91,3.91,0,0,1-1.22.8,3.76,3.76,0,0,1-1.46.28H91.78a3.81,3.81,0,0,1-1.47-.28,4,4,0,0,1-1.21-.8,3.77,3.77,0,0,1-.83-1.18,3.41,3.41,0,0,1-.32-1.45v-.6l1.37-.22v.82a2.34,2.34,0,0,0,.2.95,2.46,2.46,0,0,0,.56.76,2.54,2.54,0,0,0,.8.53,2.66,2.66,0,0,0,1,.19h1a2.57,2.57,0,0,0,1-.19,2.54,2.54,0,0,0,.8-.53,2.63,2.63,0,0,0,.56-.76,2.34,2.34,0,0,0,.2-.95v-.45A2.55,2.55,0,0,0,95,174a2.87,2.87,0,0,0-.82-.88,5,5,0,0,0-1.14-.62L91.74,172c-.45-.17-.88-.35-1.31-.56a4.78,4.78,0,0,1-1.15-.76,3.63,3.63,0,0,1-.81-1.13,4,4,0,0,1-.3-1.63v-.29a3.5,3.5,0,0,1,.29-1.44,3.61,3.61,0,0,1,2-2,3.58,3.58,0,0,1,1.45-.29h1a3.51,3.51,0,0,1,1.45.29,3.82,3.82,0,0,1,1.18.79,3.72,3.72,0,0,1,.8,1.19,3.67,3.67,0,0,1,.29,1.44V168l-1.36.22v-.61a2.47,2.47,0,0,0-.19-.94,2.55,2.55,0,0,0-.52-.77,2.46,2.46,0,0,0-1.71-.7H92a2.3,2.3,0,0,0-.95.19,2.35,2.35,0,0,0-.77.51,2.38,2.38,0,0,0-.52.77,2.29,2.29,0,0,0-.19.94v.29a2.32,2.32,0,0,0,.3,1.22,2.88,2.88,0,0,0,.82.85,5.36,5.36,0,0,0,1.14.61l1.32.53c.45.18.88.38,1.31.59a4.92,4.92,0,0,1,1.14.79,3.7,3.7,0,0,1,.82,1.15,4.05,4.05,0,0,1,.3,1.65Z"/><path class="cls-25" d="M107.9,175.71a3.4,3.4,0,0,1-.31,1.45,3.77,3.77,0,0,1-.83,1.18,3.91,3.91,0,0,1-1.22.8,3.76,3.76,0,0,1-1.46.28H103a3.81,3.81,0,0,1-1.47-.28,4,4,0,0,1-1.21-.8,3.77,3.77,0,0,1-.83-1.18,3.41,3.41,0,0,1-.32-1.45v-.6l1.37-.22v.82a2.34,2.34,0,0,0,.2.95,2.46,2.46,0,0,0,.56.76,2.54,2.54,0,0,0,.8.53,2.66,2.66,0,0,0,1,.19h1a2.57,2.57,0,0,0,1-.19,2.54,2.54,0,0,0,.8-.53,2.63,2.63,0,0,0,.56-.76,2.34,2.34,0,0,0,.2-.95v-.45a2.55,2.55,0,0,0-.3-1.3,2.87,2.87,0,0,0-.82-.88,5,5,0,0,0-1.14-.62L103,172c-.45-.17-.88-.35-1.31-.56a4.78,4.78,0,0,1-1.15-.76,3.63,3.63,0,0,1-.81-1.13,4,4,0,0,1-.3-1.63v-.29a3.5,3.5,0,0,1,.29-1.44,3.61,3.61,0,0,1,2-2,3.54,3.54,0,0,1,1.45-.29h1a3.51,3.51,0,0,1,1.45.29,3.82,3.82,0,0,1,1.18.79,3.89,3.89,0,0,1,.8,1.19,3.67,3.67,0,0,1,.29,1.44V168l-1.36.22v-.61a2.47,2.47,0,0,0-.19-.94,2.55,2.55,0,0,0-.52-.77,2.46,2.46,0,0,0-1.71-.7h-.84a2.3,2.3,0,0,0-1,.19,2.35,2.35,0,0,0-.77.51,2.38,2.38,0,0,0-.52.77,2.29,2.29,0,0,0-.19.94v.29a2.32,2.32,0,0,0,.3,1.22,2.88,2.88,0,0,0,.82.85,5.36,5.36,0,0,0,1.14.61l1.32.53c.45.18.88.38,1.31.59a4.92,4.92,0,0,1,1.14.79,3.7,3.7,0,0,1,.82,1.15,4.05,4.05,0,0,1,.3,1.65Z"/><path class="cls-25" d="M112.19,165.38V171H118v1.3h-5.79v6.91h-1.36V164.08h8.52v1.3Z"/><path class="cls-25" d="M121.51,179.21V164.08h1.36v15.13Z"/><path class="cls-25" d="M133.45,179.21l-4.11-6.45h-1.87v6.45h-1.36V164.08h4.8a3.51,3.51,0,0,1,1.45.29,3.68,3.68,0,0,1,1.18.8,3.57,3.57,0,0,1,.8,1.18,3.75,3.75,0,0,1,.29,1.45V169a3.72,3.72,0,0,1-1.09,2.64,3.65,3.65,0,0,1-1.18.79,3.52,3.52,0,0,1-1.45.3l4.11,6.45Zm-.18-11.41a2.47,2.47,0,0,0-.19-.94,2.55,2.55,0,0,0-.52-.77,2.36,2.36,0,0,0-1.71-.71h-3.38v6.08h3.38a2.52,2.52,0,0,0,1-.19,2.37,2.37,0,0,0,.76-.53,2.41,2.41,0,0,0,.71-1.71Z"/><path class="cls-25" d="M137.62,179.21V164.08h8.52v1.3H139V171h5.79v1.3H139v5.62h7.16v1.29Z"/></g></svg>