<svg xmlns="http://www.w3.org/2000/svg" xmlns:xlink="http://www.w3.org/1999/xlink" viewBox="0 0 200 200"><defs><style>.cls-1{fill:#8dd6ff;opacity:0.17;}.cls-1,.cls-13{stroke:#007acc;stroke-miterlimit:10;}.cls-2,.cls-3{opacity:0.14;}.cls-3{fill:#c5fff9;}.cls-10,.cls-11,.cls-12,.cls-4,.cls-5,.cls-6,.cls-7,.cls-8,.cls-9{fill:none;stroke-linecap:round;stroke-linejoin:round;stroke-width:3px;}.cls-4{stroke:url(#linear-gradient);}.cls-5{stroke:url(#linear-gradient-2);}.cls-6{stroke:url(#linear-gradient-3);}.cls-7{stroke:url(#linear-gradient-4);}.cls-8{stroke:url(#linear-gradient-5);}.cls-9{stroke:url(#linear-gradient-6);}.cls-10{stroke:url(#linear-gradient-7);}.cls-11{stroke:url(#linear-gradient-8);}.cls-12{stroke:url(#linear-gradient-9);}.cls-13{fill:#8faaff;opacity:0.2;}.cls-14{fill:#fff;}</style><linearGradient id="linear-gradient" x1="94.75" y1="102.26" x2="97.75" y2="102.26" gradientUnits="userSpaceOnUse"><stop offset="0" stop-color="#80cfff"/><stop offset="1" stop-color="#83ffde"/></linearGradient><linearGradient id="linear-gradient-2" x1="101.75" y1="102.26" x2="104.75" y2="102.26" xlink:href="#linear-gradient"/><linearGradient id="linear-gradient-3" x1="-4277.39" y1="73.96" x2="-4236.02" y2="73.96" gradientTransform="matrix(-1, 0, 0, 1, -4156.95, 0)" xlink:href="#linear-gradient"/><linearGradient id="linear-gradient-4" x1="63" y1="243.21" x2="80.01" y2="243.21" gradientTransform="translate(-18.92 -161.92) rotate(-4.46)" xlink:href="#linear-gradient"/><linearGradient id="linear-gradient-5" x1="-4313.35" y1="-98.12" x2="-4296.33" y2="-98.12" gradientTransform="matrix(-1, -0.08, -0.08, 1, -4171.22, -161.92)" xlink:href="#linear-gradient"/><linearGradient id="linear-gradient-6" x1="85.91" y1="111.9" x2="113.59" y2="111.9" xlink:href="#linear-gradient"/><linearGradient id="linear-gradient-7" x1="91.56" y1="43.35" x2="107.94" y2="43.35" xlink:href="#linear-gradient"/><linearGradient id="linear-gradient-8" x1="80.41" y1="37.46" x2="119.09" y2="37.46" xlink:href="#linear-gradient"/><linearGradient id="linear-gradient-9" x1="-4247.25" y1="120.47" x2="-4209.84" y2="120.47" gradientTransform="matrix(-1, 0, 0, 1, -4128.79, 0)" xlink:href="#linear-gradient"/></defs><title>events_2</title><g id="Layer_2" data-name="Layer 2"><polygon class="cls-1" points="174.25 10 100.25 10 26.25 10 9.75 26.5 9.75 78 9.75 129.5 26.25 146 100.25 146 174.25 146 190.75 129.5 190.75 78 190.75 26.5 174.25 10"/><path class="cls-3" d="M99.75,96.64c18,0,16.29-16.88,16.29-27.43a29.41,29.41,0,0,1,2.53-11.75,4.44,4.44,0,0,0-4.11-6.18H85a4.44,4.44,0,0,0-4.11,6.18,29.41,29.41,0,0,1,2.53,11.75C83.46,79.76,81.73,96.64,99.75,96.64Z"/><path class="cls-3" d="M108.38,109.51a2,2,0,0,0-1.61-.81h-14a2,2,0,0,0-1.61.81,45.34,45.34,0,0,1-3.48,4.27.77.77,0,0,0,.55,1.32h23.12a.77.77,0,0,0,.55-1.32A45.34,45.34,0,0,1,108.38,109.51Z"/><line class="cls-4" x1="96.25" y1="96.4" x2="96.25" y2="108.11"/><line class="cls-5" x1="103.25" y1="96.4" x2="103.25" y2="108.11"/><path class="cls-6" d="M99.75,96.64c18,0,16.29-16.88,16.29-27.43a29.41,29.41,0,0,1,2.53-11.75,4.44,4.44,0,0,0-4.11-6.18H85a4.44,4.44,0,0,0-4.11,6.18,29.41,29.41,0,0,1,2.53,11.75C83.46,79.76,81.73,96.64,99.75,96.64Z"/><path class="cls-7" d="M76,59.64c-6,.18-12.55,1.57-12.25,9,.39,9.73,15.65,11.17,15.65,20.78"/><path class="cls-8" d="M123.49,59.64c6,.18,12.55,1.57,12.25,9-.39,9.73-15.65,11.17-15.65,20.78"/><path class="cls-9" d="M108.38,109.51a2,2,0,0,0-1.61-.81h-14a2,2,0,0,0-1.61.81,45.34,45.34,0,0,1-3.48,4.27.77.77,0,0,0,.55,1.32h23.12a.77.77,0,0,0,.55-1.32A45.34,45.34,0,0,1,108.38,109.51Z"/><path class="cls-10" d="M93.06,46.69a6.69,6.69,0,0,1,13.38,0"/><path class="cls-11" d="M117.59,46.38V44.47A1.59,1.59,0,0,0,116,42.88h-3.45v0a13.13,13.13,0,0,0-1.29-3.14l0,0,2.44-2.44a1.59,1.59,0,0,0,0-2.25l-1.35-1.35L111,32.41a1.59,1.59,0,0,0-2.25,0l-2.44,2.44,0,0a13.33,13.33,0,0,0-3.14-1.3h0V30.13a1.6,1.6,0,0,0-1.59-1.6H97.84a1.6,1.6,0,0,0-1.59,1.6v3.44h0a13.33,13.33,0,0,0-3.14,1.3l0,0-2.44-2.44a1.59,1.59,0,0,0-2.25,0l-1.35,1.35-1.35,1.35a1.59,1.59,0,0,0,0,2.25l2.44,2.44,0,0A13.13,13.13,0,0,0,87,42.92v0H83.5a1.59,1.59,0,0,0-1.59,1.59v1.91"/><polyline class="cls-12" points="116.96 120.47 99.75 120.47 82.54 120.47"/><polygon class="cls-13" points="172.25 151 99.25 151 26.25 151 9.25 168 9.25 170.5 9.25 173 26.25 190 99.25 190 172.25 190 189.25 173 189.25 170.5 189.25 168 172.25 151"/><path class="cls-14" d="M69,179.22V164.08h8.52v1.3H70.39V171h5.8v1.3h-5.8v5.62h7.16v1.3Z"/><path class="cls-14" d="M83.38,175.89l.05.56,0-.56,3.35-11.81h1.41l-4.46,15.14h-.71l-4.44-15.14H80Z"/><path class="cls-14" d="M90.17,179.22V164.08h8.52v1.3H91.53V171h5.8v1.3h-5.8v5.62h7.16v1.3Z"/><path class="cls-14" d="M109.09,179.22l-6.32-11-.12-.65v11.68h-1.36V164.08h.7l6.31,11,.14.64V164.08h1.36v15.14Z"/><path class="cls-14" d="M116.94,165.38v13.84h-1.36V165.38H112v-1.3h8.58v1.3Z"/><path class="cls-14" d="M131,175.71a3.4,3.4,0,0,1-.31,1.45,4,4,0,0,1-.84,1.18,3.87,3.87,0,0,1-1.21.8,3.8,3.8,0,0,1-1.46.29H126.1a3.8,3.8,0,0,1-1.46-.29,4,4,0,0,1-1.22-.8,4.12,4.12,0,0,1-.83-1.18,3.4,3.4,0,0,1-.31-1.45v-.6l1.36-.22v.82a2.12,2.12,0,0,0,.21.94,2.51,2.51,0,0,0,.55.78,2.6,2.6,0,0,0,1.77.71h1a2.56,2.56,0,0,0,1-.19,2.62,2.62,0,0,0,.81-.52,2.69,2.69,0,0,0,.55-.78,2.12,2.12,0,0,0,.21-.94v-.45a2.55,2.55,0,0,0-.31-1.3,2.72,2.72,0,0,0-.81-.88,5,5,0,0,0-1.15-.62l-1.31-.51c-.45-.17-.89-.35-1.32-.56a4.93,4.93,0,0,1-1.14-.76,3.33,3.33,0,0,1-.81-1.13,3.76,3.76,0,0,1-.31-1.63v-.29a3.67,3.67,0,0,1,.29-1.44,3.67,3.67,0,0,1,2-2,3.51,3.51,0,0,1,1.45-.29h1a3.5,3.5,0,0,1,1.44.29,3.61,3.61,0,0,1,2,2,3.5,3.5,0,0,1,.29,1.44V168l-1.36.22v-.61a2.26,2.26,0,0,0-.19-.94,2.55,2.55,0,0,0-.52-.77,2.21,2.21,0,0,0-.76-.51,2.29,2.29,0,0,0-.94-.19h-.85a2.46,2.46,0,0,0-1.71.7,2.36,2.36,0,0,0-.72,1.71v.29a2.23,2.23,0,0,0,.31,1.22,2.73,2.73,0,0,0,.81.85,5.45,5.45,0,0,0,1.15.61c.42.18.86.35,1.31.53s.89.38,1.32.59a5.08,5.08,0,0,1,1.14.8,3.37,3.37,0,0,1,.81,1.14,3.89,3.89,0,0,1,.31,1.65Z"/></g></svg>