<svg xmlns="http://www.w3.org/2000/svg" xmlns:xlink="http://www.w3.org/1999/xlink" viewBox="0 0 200 200"><defs><style>.cls-1{fill:#8dd6ff;opacity:0.17;}.cls-1,.cls-2{stroke:#007acc;stroke-miterlimit:10;}.cls-2{fill:#8faaff;opacity:0.2;}.cls-3{fill:#c5fff9;opacity:0.14;}.cls-10,.cls-11,.cls-12,.cls-4,.cls-5,.cls-6,.cls-7,.cls-8,.cls-9{fill:none;stroke-linecap:round;stroke-linejoin:round;stroke-width:3px;}.cls-4{stroke:url(#linear-gradient);}.cls-5{stroke:url(#linear-gradient-2);}.cls-6{stroke:url(#linear-gradient-3);}.cls-7{stroke:url(#linear-gradient-4);}.cls-8{stroke:url(#linear-gradient-5);}.cls-9{stroke:url(#linear-gradient-6);}.cls-10{stroke:url(#linear-gradient-7);}.cls-11{stroke:url(#linear-gradient-8);}.cls-12{stroke:url(#linear-gradient-9);}.cls-13{fill:#fff;}</style><linearGradient id="linear-gradient" x1="79.8" y1="83.63" x2="119.7" y2="83.63" gradientUnits="userSpaceOnUse"><stop offset="0" stop-color="#80cfff"/><stop offset="1" stop-color="#83ffde"/></linearGradient><linearGradient id="linear-gradient-2" x1="63.86" y1="83.61" x2="135.64" y2="83.61" xlink:href="#linear-gradient"/><linearGradient id="linear-gradient-3" x1="63.86" y1="72.83" x2="135.64" y2="72.83" xlink:href="#linear-gradient"/><linearGradient id="linear-gradient-4" x1="47.25" y1="122.54" x2="152.25" y2="122.54" xlink:href="#linear-gradient"/><linearGradient id="linear-gradient-5" x1="98.25" y1="45.91" x2="101.25" y2="45.91" xlink:href="#linear-gradient"/><linearGradient id="linear-gradient-6" x1="-694.2" y1="2023.98" x2="-691.2" y2="2023.98" gradientTransform="translate(-880.36 -1865.77) rotate(-45)" xlink:href="#linear-gradient"/><linearGradient id="linear-gradient-7" x1="-4673.31" y1="-1955.13" x2="-4670.31" y2="-1955.13" gradientTransform="matrix(-0.71, -0.71, -0.71, 0.71, -4550.04, -1865.77)" xlink:href="#linear-gradient"/><linearGradient id="linear-gradient-8" x1="72.8" y1="109.68" x2="75.8" y2="109.68" xlink:href="#linear-gradient"/><linearGradient id="linear-gradient-9" x1="123.7" y1="109.68" x2="126.7" y2="109.68" xlink:href="#linear-gradient"/></defs><title>exhibitions_1</title><g id="Layer_2" data-name="Layer 2"><polygon class="cls-1" points="174.25 10 100.25 10 26.25 10 9.75 26.5 9.75 78 9.75 129.5 26.25 146 100.25 146 174.25 146 190.75 129.5 190.75 78 190.75 26.5 174.25 10"/><polygon class="cls-2" points="172.25 151 99.25 151 26.25 151 9.25 168 9.25 170.5 9.25 173 26.25 190 99.25 190 172.25 190 189.25 173 189.25 170.5 189.25 168 172.25 151"/><polygon class="cls-3" points="121.32 60 99.75 60.06 78.18 60 65.36 72.83 99.75 107.22 134.14 72.83 121.32 60"/><polyline class="cls-4" points="99.75 72.83 99.75 60.06 94.09 60.03 81.3 72.83 99.75 107.22 99.75 72.83 99.75 107.22 118.2 72.83 105.44 60.06"/><polygon class="cls-5" points="121.32 60 99.75 60.06 78.18 60 65.36 72.83 99.75 107.22 134.14 72.83 121.32 60"/><line class="cls-6" x1="65.36" y1="72.83" x2="134.14" y2="72.83"/><path class="cls-7" d="M52,119.25h95.42a3.29,3.29,0,0,1,3.29,3.29h0a3.29,3.29,0,0,1-3.29,3.29H52a3.29,3.29,0,0,1-3.29-3.29h0A3.29,3.29,0,0,1,52,119.25Z"/><line class="cls-8" x1="99.75" y1="41.17" x2="99.75" y2="50.66"/><line class="cls-9" x1="57.64" y1="51.86" x2="64.36" y2="58.57"/><line class="cls-10" x1="139.27" y1="51.86" x2="132.56" y2="58.57"/><line class="cls-11" x1="74.3" y1="102.79" x2="74.3" y2="116.57"/><line class="cls-12" x1="125.2" y1="102.79" x2="125.2" y2="116.57"/><path class="cls-13" d="M49.81,179.22V164.08h8.52v1.3H51.17V171H57v1.3h-5.8v5.62h7.16v1.3Z"/><path class="cls-13" d="M67.55,179.22l-3.12-6.3-3.11,6.3H59.84l3.85-7.78-3.63-7.36h1.47l2.9,5.86,2.89-5.86h1.47l-3.63,7.36L69,179.22Z"/><path class="cls-13" d="M78.54,179.22V172.3H72.75v6.92H71.39V164.08h1.36V171h5.79v-6.92h1.37v15.14Z"/><path class="cls-13" d="M83.37,179.22V164.08h1.36v15.14Z"/><path class="cls-13" d="M96.42,177a3.72,3.72,0,0,1-2,2,3.6,3.6,0,0,1-1.46.3H88.19V164.08H93a3.77,3.77,0,0,1,1.46.29,3.68,3.68,0,0,1,1.18.8,3.57,3.57,0,0,1,.8,1.18,3.77,3.77,0,0,1,.29,1.46V168a3.88,3.88,0,0,1-.14,1,3.57,3.57,0,0,1-.41.91,3.88,3.88,0,0,1-.62.77,3.43,3.43,0,0,1-.8.57,3.8,3.8,0,0,1,.8.58,4.19,4.19,0,0,1,.62.77,3.8,3.8,0,0,1,.41.92,3.88,3.88,0,0,1,.14,1v1A3.75,3.75,0,0,1,96.42,177Zm-1.07-9.14a2.48,2.48,0,0,0-.19-.95,2.55,2.55,0,0,0-.52-.77,2.42,2.42,0,0,0-.78-.52,2.26,2.26,0,0,0-.94-.19H89.55v5.21h3.37a2.26,2.26,0,0,0,.94-.19,2.6,2.6,0,0,0,.78-.52,2.55,2.55,0,0,0,.52-.77,2.48,2.48,0,0,0,.19-1Zm0,6.5a2.48,2.48,0,0,0-.19-.95,2.39,2.39,0,0,0-.52-.76,2.6,2.6,0,0,0-.78-.52,2.26,2.26,0,0,0-.94-.19H89.55v6h3.37a2.43,2.43,0,0,0,.94-.19,2.6,2.6,0,0,0,.78-.52,2.41,2.41,0,0,0,.71-1.71Z"/><path class="cls-13" d="M99.31,179.22V164.08h1.36v15.14Z"/><path class="cls-13" d="M107.8,165.38v13.84h-1.36V165.38h-3.61v-1.3h8.58v1.3Z"/><path class="cls-13" d="M113.58,179.22V164.08h1.36v15.14Z"/><path class="cls-13" d="M126.41,177.16a3.78,3.78,0,0,1-2,2,3.72,3.72,0,0,1-1.45.29H121.9a3.67,3.67,0,0,1-2.63-1.09,3.68,3.68,0,0,1-.8-1.18,3.72,3.72,0,0,1-.29-1.45v-8.13a3.67,3.67,0,0,1,.29-1.44,3.69,3.69,0,0,1,2-2,3.58,3.58,0,0,1,1.45-.29H123a3.54,3.54,0,0,1,1.45.29,3.82,3.82,0,0,1,1.18.79,3.89,3.89,0,0,1,.8,1.19,3.67,3.67,0,0,1,.29,1.44v8.13A3.72,3.72,0,0,1,126.41,177.16Zm-1.07-9.58a2.43,2.43,0,0,0-.19-.94,2.55,2.55,0,0,0-.52-.77,2.35,2.35,0,0,0-.77-.51,2.26,2.26,0,0,0-.94-.19h-1a2.46,2.46,0,0,0-1.72.7,2.55,2.55,0,0,0-.52.77,2.26,2.26,0,0,0-.19.94v8.13a2.26,2.26,0,0,0,.19.94,2.6,2.6,0,0,0,.52.78,2.55,2.55,0,0,0,.77.52,2.52,2.52,0,0,0,1,.19h1a2.43,2.43,0,0,0,.94-.19,2.55,2.55,0,0,0,.77-.52,2.6,2.6,0,0,0,.52-.78,2.43,2.43,0,0,0,.19-.94Z"/><path class="cls-13" d="M137.75,179.22l-6.31-11-.13-.65v11.68H130V164.08h.71l6.31,11,.14.64V164.08h1.36v15.14Z"/><path class="cls-13" d="M150.22,175.71a3.4,3.4,0,0,1-.31,1.45,3.77,3.77,0,0,1-.83,1.18,3.91,3.91,0,0,1-1.22.8,3.77,3.77,0,0,1-1.46.29h-1.08a3.85,3.85,0,0,1-1.47-.29,4,4,0,0,1-1.21-.8,3.77,3.77,0,0,1-.83-1.18,3.41,3.41,0,0,1-.32-1.45v-.6l1.37-.22v.82a2.26,2.26,0,0,0,.2.94,2.54,2.54,0,0,0,.56.78,2.69,2.69,0,0,0,.8.52,2.66,2.66,0,0,0,1,.19h1a2.57,2.57,0,0,0,1-.19,2.59,2.59,0,0,0,1.36-1.3,2.26,2.26,0,0,0,.2-.94v-.45a2.55,2.55,0,0,0-.3-1.3,2.87,2.87,0,0,0-.82-.88,5,5,0,0,0-1.14-.62l-1.32-.51c-.45-.17-.88-.35-1.31-.56a4.78,4.78,0,0,1-1.15-.76,3.63,3.63,0,0,1-.81-1.13,3.92,3.92,0,0,1-.3-1.63v-.29a3.5,3.5,0,0,1,.29-1.44,3.61,3.61,0,0,1,2-2,3.58,3.58,0,0,1,1.45-.29h1a3.51,3.51,0,0,1,1.45.29A3.82,3.82,0,0,1,149,165a3.72,3.72,0,0,1,.8,1.19,3.67,3.67,0,0,1,.29,1.44V168l-1.36.22v-.61a2.43,2.43,0,0,0-.19-.94,2.55,2.55,0,0,0-.52-.77,2.46,2.46,0,0,0-1.71-.7h-.84a2.3,2.3,0,0,0-.95.19,2.35,2.35,0,0,0-.77.51,2.38,2.38,0,0,0-.52.77,2.26,2.26,0,0,0-.19.94v.29a2.32,2.32,0,0,0,.3,1.22,2.88,2.88,0,0,0,.82.85,5.62,5.62,0,0,0,1.14.61l1.32.53c.45.18.88.38,1.31.59a4.93,4.93,0,0,1,1.15.8,3.68,3.68,0,0,1,.81,1.14,4.05,4.05,0,0,1,.3,1.65Z"/></g></svg>