<svg xmlns="http://www.w3.org/2000/svg" xmlns:xlink="http://www.w3.org/1999/xlink" viewBox="0 0 200 200"><defs><style>.cls-1{fill:#8dd6ff;opacity:0.17;}.cls-1,.cls-2{stroke:#007acc;stroke-miterlimit:10;}.cls-2{fill:#8faaff;opacity:0.2;}.cls-3{fill:#c5fff9;opacity:0.14;}.cls-10,.cls-4,.cls-5,.cls-6,.cls-7,.cls-8,.cls-9{fill:none;stroke-linecap:round;stroke-linejoin:round;stroke-width:3px;}.cls-4{stroke:url(#linear-gradient);}.cls-5{stroke:url(#linear-gradient-2);}.cls-6{stroke:url(#linear-gradient-4);}.cls-7{stroke:url(#linear-gradient-5);}.cls-8{stroke:url(#linear-gradient-6);}.cls-9{stroke:url(#linear-gradient-7);}.cls-10{stroke:url(#linear-gradient-8);}.cls-11{fill:#fff;}</style><linearGradient id="linear-gradient" x1="-819.15" y1="1937.09" x2="-743.02" y2="1937.09" gradientTransform="translate(-702.64 -1840.54) rotate(-45)" gradientUnits="userSpaceOnUse"><stop offset="0" stop-color="#80cfff"/><stop offset="1" stop-color="#83ffde"/></linearGradient><linearGradient id="linear-gradient-2" x1="-782.58" y1="1937.09" x2="-779.58" y2="1937.09" xlink:href="#linear-gradient"/><linearGradient id="linear-gradient-4" x1="-807.61" y1="1911.53" x2="-754.55" y2="1911.53" xlink:href="#linear-gradient"/><linearGradient id="linear-gradient-5" x1="-807.87" y1="1962.37" x2="-754.3" y2="1962.37" xlink:href="#linear-gradient"/><linearGradient id="linear-gradient-6" x1="64.8" y1="43.66" x2="88.38" y2="43.66" gradientTransform="matrix(1, 0, 0, 1, 0, 0)" xlink:href="#linear-gradient"/><linearGradient id="linear-gradient-7" x1="64.8" y1="119.34" x2="88.38" y2="119.34" gradientTransform="matrix(1, 0, 0, 1, 0, 0)" xlink:href="#linear-gradient"/><linearGradient id="linear-gradient-8" x1="46.65" y1="81.5" x2="70.24" y2="81.5" gradientTransform="matrix(1, 0, 0, 1, 0, 0)" xlink:href="#linear-gradient"/></defs><title>gamescape</title><g id="Layer_2" data-name="Layer 2"><polygon class="cls-1" points="174.25 10 100.25 10 26.25 10 9.75 26.5 9.75 78 9.75 129.5 26.25 146 100.25 146 174.25 146 190.75 129.5 190.75 78 190.75 26.5 174.25 10"/><polygon class="cls-2" points="172.25 151 99.25 151 26.25 151 9.25 168 9.25 170.5 9.25 173 26.25 190 99.25 190 172.25 190 189.25 173 189.25 170.5 189.25 168 172.25 151"/><path class="cls-3" d="M88.93,55.64A36.46,36.46,0,0,0,78.24,80.36,32,32,0,0,0,113.64,45,36.43,36.43,0,0,0,88.93,55.64Z"/><path class="cls-3" d="M140.64,107.36a36.46,36.46,0,0,0,10.69-25.07,32,32,0,0,0-35.76,35.76A36.46,36.46,0,0,0,140.64,107.36Z"/><line class="cls-4" x1="88.93" y1="107.36" x2="140.64" y2="55.64"/><line class="cls-5" x1="88.93" y1="55.64" x2="140.64" y2="107.36"/><circle class="cls-4" cx="114.78" cy="81.5" r="36.57"/><path class="cls-6" d="M88.93,55.64A36.46,36.46,0,0,0,78.24,80.36,32,32,0,0,0,113.64,45,36.43,36.43,0,0,0,88.93,55.64Z"/><path class="cls-7" d="M140.64,107.36a36.46,36.46,0,0,0,10.69-25.07,32,32,0,0,0-35.76,35.76A36.46,36.46,0,0,0,140.64,107.36Z"/><line class="cls-8" x1="86.88" y1="43.66" x2="66.3" y2="43.66"/><line class="cls-9" x1="86.88" y1="119.34" x2="66.3" y2="119.34"/><line class="cls-10" x1="68.74" y1="81.5" x2="48.15" y2="81.5"/><path class="cls-11" d="M59,179.21h-.43L57.74,178a3.73,3.73,0,0,1-1.2,1,3.21,3.21,0,0,1-1.58.38h-.79a3.58,3.58,0,0,1-1.45-.29,3.69,3.69,0,0,1-1.19-.79,3.82,3.82,0,0,1-.79-1.18,3.58,3.58,0,0,1-.29-1.45v-8.13a3.5,3.5,0,0,1,.29-1.44,3.61,3.61,0,0,1,2-2,3.58,3.58,0,0,1,1.45-.29h1.08a3.5,3.5,0,0,1,1.44.29,3.75,3.75,0,0,1,1.19.79,3.69,3.69,0,0,1,.79,1.19,3.5,3.5,0,0,1,.29,1.44v.61l-1.36.22v-.83a2.26,2.26,0,0,0-.19-.94,2.52,2.52,0,0,0-.51-.77,2.55,2.55,0,0,0-.77-.52,2.47,2.47,0,0,0-.94-.19h-.95a2.48,2.48,0,0,0-1,.19,2.55,2.55,0,0,0-.77.52,2.38,2.38,0,0,0-.52.77,2.26,2.26,0,0,0-.19.94v8.13a2.41,2.41,0,0,0,.71,1.71,2.41,2.41,0,0,0,.77.53,2.48,2.48,0,0,0,1,.19h.95a2.47,2.47,0,0,0,.94-.19,2.44,2.44,0,0,0,1.28-1.3,2.26,2.26,0,0,0,.19-.94v-3.16H55.19v-1.3H59Z"/><path class="cls-11" d="M67.9,175.69H63.1l-1,3.52H60.7l4.43-15.13h.72l4.45,15.13H68.9Zm-4.43-1.3h4.07l-2-7,0-.56,0,.56Z"/><path class="cls-11" d="M81.56,179.21V168.84l-.09.64L78,179.21h-.71l-3.55-9.73-.08-.64v10.37H72.24V164.08H73l4.59,12.41,0,.56,0-.56,4.58-12.41h.72v15.13Z"/><path class="cls-11" d="M86.38,179.21V164.08h8.51v1.3H87.74V171h5.79v1.3H87.74v5.62h7.15v1.29Z"/><path class="cls-11" d="M105.79,175.71a3.6,3.6,0,0,1-.31,1.45,4,4,0,0,1-.84,1.18,3.78,3.78,0,0,1-1.21.79,3.63,3.63,0,0,1-1.46.29h-1.09a3.63,3.63,0,0,1-1.46-.29,3.83,3.83,0,0,1-1.22-.79,4.12,4.12,0,0,1-.83-1.18,3.44,3.44,0,0,1-.31-1.45v-.6l1.36-.22v.82a2.12,2.12,0,0,0,.21.94,2.36,2.36,0,0,0,.55.77,2.47,2.47,0,0,0,.81.53,2.61,2.61,0,0,0,1,.19h1a2.55,2.55,0,0,0,1.77-.72,2.51,2.51,0,0,0,.55-.77,2.12,2.12,0,0,0,.21-.94v-.45a2.53,2.53,0,0,0-.31-1.3,2.72,2.72,0,0,0-.81-.88,5,5,0,0,0-1.15-.62l-1.31-.51c-.45-.17-.89-.35-1.32-.56a4.93,4.93,0,0,1-1.14-.76,3.33,3.33,0,0,1-.81-1.13,3.79,3.79,0,0,1-.31-1.63v-.29a3.67,3.67,0,0,1,.29-1.44,3.69,3.69,0,0,1,2-2,3.59,3.59,0,0,1,1.46-.29h1a3.5,3.5,0,0,1,1.44.29,3.61,3.61,0,0,1,2,2,3.5,3.5,0,0,1,.29,1.44V168l-1.36.22v-.61a2.26,2.26,0,0,0-.19-.94,2.55,2.55,0,0,0-.52-.77,2.39,2.39,0,0,0-.76-.52,2.48,2.48,0,0,0-.95-.19h-.84a2.52,2.52,0,0,0-1,.19,2.68,2.68,0,0,0-.77.52,2.55,2.55,0,0,0-.52.77,2.26,2.26,0,0,0-.19.94v.29a2.23,2.23,0,0,0,.31,1.22,2.84,2.84,0,0,0,.81.85,5.45,5.45,0,0,0,1.15.61c.42.18.86.35,1.31.53s.89.38,1.31.59a5.21,5.21,0,0,1,1.15.79,3.52,3.52,0,0,1,.81,1.15,3.89,3.89,0,0,1,.31,1.65Z"/><path class="cls-11" d="M116.72,177.16a3.85,3.85,0,0,1-.8,1.18,3.65,3.65,0,0,1-1.18.79,3.51,3.51,0,0,1-1.45.29h-1.07a3.59,3.59,0,0,1-1.46-.29,3.55,3.55,0,0,1-1.18-.79,3.68,3.68,0,0,1-.8-1.18,3.75,3.75,0,0,1-.29-1.45v-8.13a3.67,3.67,0,0,1,.29-1.44,3.69,3.69,0,0,1,2-2,3.59,3.59,0,0,1,1.46-.29h1.07a3.51,3.51,0,0,1,1.45.29,3.82,3.82,0,0,1,1.18.79,3.89,3.89,0,0,1,.8,1.19,3.67,3.67,0,0,1,.29,1.44v.61l-1.36.22v-.83a2.43,2.43,0,0,0-.19-.94,2.55,2.55,0,0,0-.52-.77,2.41,2.41,0,0,0-1.71-.71h-1a2.52,2.52,0,0,0-1,.19,2.44,2.44,0,0,0-1.29,1.29,2.26,2.26,0,0,0-.19.94v8.13a2.26,2.26,0,0,0,.19.94,2.51,2.51,0,0,0,1.29,1.3,2.52,2.52,0,0,0,1,.19h1a2.43,2.43,0,0,0,.94-.19,2.3,2.3,0,0,0,.77-.53,2.41,2.41,0,0,0,.71-1.71v-.82l1.36.22v.6A3.75,3.75,0,0,1,116.72,177.16Z"/><path class="cls-11" d="M125.72,175.69h-4.8l-1,3.52h-1.41L123,164.08h.72l4.45,15.13h-1.4Zm-4.43-1.3h4.07l-2-7,0-.56,0,.56Z"/><path class="cls-11" d="M138.29,171.13a3.82,3.82,0,0,1-.79,1.18,3.89,3.89,0,0,1-1.19.8,3.75,3.75,0,0,1-1.45.29h-3.43v5.81h-1.36V164.08h4.79a3.58,3.58,0,0,1,1.45.29,3.61,3.61,0,0,1,2,2,3.58,3.58,0,0,1,.29,1.45v1.88A3.51,3.51,0,0,1,138.29,171.13Zm-1.07-3.33a2.29,2.29,0,0,0-.19-.94,2.55,2.55,0,0,0-.52-.77,2.38,2.38,0,0,0-.77-.52,2.3,2.3,0,0,0-1-.19h-3.36v6.72h3.36a2.3,2.3,0,0,0,1-.19,2.55,2.55,0,0,0,.77-.52,2.51,2.51,0,0,0,.52-.76,2.34,2.34,0,0,0,.19-.95Z"/><path class="cls-11" d="M141.18,179.21V164.08h8.52v1.3h-7.16V171h5.8v1.3h-5.8v5.62h7.16v1.29Z"/></g></svg>