<svg xmlns="http://www.w3.org/2000/svg" xmlns:xlink="http://www.w3.org/1999/xlink" viewBox="0 0 200 200"><defs><style>.cls-1{fill:#8dd6ff;opacity:0.17;}.cls-1,.cls-2{stroke:#007acc;stroke-miterlimit:10;}.cls-2{fill:#8faaff;opacity:0.2;}.cls-10,.cls-11,.cls-12,.cls-13,.cls-14,.cls-15,.cls-3,.cls-4,.cls-5,.cls-6,.cls-7,.cls-8,.cls-9{fill:none;stroke-linecap:round;stroke-linejoin:round;stroke-width:3px;}.cls-3{stroke:url(#linear-gradient);}.cls-4{stroke:url(#linear-gradient-2);}.cls-5{stroke:url(#linear-gradient-3);}.cls-6{stroke:url(#linear-gradient-4);}.cls-7{stroke:url(#linear-gradient-5);}.cls-8{stroke:url(#linear-gradient-6);}.cls-9{stroke:url(#linear-gradient-7);}.cls-10{stroke:url(#linear-gradient-8);}.cls-11{stroke:url(#linear-gradient-9);}.cls-12{stroke:url(#linear-gradient-10);}.cls-13{stroke:url(#linear-gradient-11);}.cls-14{stroke:url(#linear-gradient-12);}.cls-15{stroke:url(#linear-gradient-13);}.cls-16{fill:#fff;}</style><linearGradient id="linear-gradient" x1="-389.11" y1="-1300.26" x2="-386.11" y2="-1300.26" gradientTransform="translate(-561.37 1272.99) rotate(45)" gradientUnits="userSpaceOnUse"><stop offset="0" stop-color="#80cfff"/><stop offset="1" stop-color="#83ffde"/></linearGradient><linearGradient id="linear-gradient-2" x1="-383.64" y1="-1300.26" x2="-380.64" y2="-1300.26" xlink:href="#linear-gradient"/><linearGradient id="linear-gradient-3" x1="91.4" y1="116.06" x2="94.4" y2="116.06" gradientTransform="translate(-18.19 -10.02)" xlink:href="#linear-gradient"/><linearGradient id="linear-gradient-4" x1="96.88" y1="116.06" x2="99.88" y2="116.06" gradientTransform="translate(-18.19 -10.02)" xlink:href="#linear-gradient"/><linearGradient id="linear-gradient-5" x1="-405.88" y1="-1330.55" x2="-363.86" y2="-1330.55" gradientTransform="translate(492.2 1390.55)" xlink:href="#linear-gradient"/><linearGradient id="linear-gradient-6" x1="-405.88" y1="-1341.28" x2="-390.64" y2="-1341.28" xlink:href="#linear-gradient"/><linearGradient id="linear-gradient-7" x1="-405.88" y1="-1330.55" x2="-390.64" y2="-1330.55" xlink:href="#linear-gradient"/><linearGradient id="linear-gradient-8" x1="-405.88" y1="-1319.81" x2="-390.64" y2="-1319.81" xlink:href="#linear-gradient"/><linearGradient id="linear-gradient-9" x1="-379.1" y1="-1341.28" x2="-363.86" y2="-1341.28" xlink:href="#linear-gradient"/><linearGradient id="linear-gradient-10" x1="-379.1" y1="-1330.55" x2="-363.86" y2="-1330.55" xlink:href="#linear-gradient"/><linearGradient id="linear-gradient-11" x1="-379.1" y1="-1319.81" x2="-363.86" y2="-1319.81" xlink:href="#linear-gradient"/><linearGradient id="linear-gradient-12" x1="-392.2" y1="-1289.35" x2="-377.54" y2="-1289.35" xlink:href="#linear-gradient"/><linearGradient id="linear-gradient-13" x1="62.39" y1="121.01" x2="92.22" y2="121.01" gradientTransform="matrix(1, 0, 0, 1, 0, 0)" xlink:href="#linear-gradient"/></defs><title>GL_1</title><g id="Layer_2" data-name="Layer 2"><polygon class="cls-1" points="174.25 10 100.25 10 26.25 10 9.75 26.5 9.75 78 9.75 129.5 26.25 146 100.25 146 174.25 146 190.75 129.5 190.75 78 190.75 26.5 174.25 10"/><polygon class="cls-2" points="172.25 151 99.25 151 26.25 151 9.25 168 9.25 170.5 9.25 173 26.25 190 99.25 190 172.25 190 189.25 173 189.25 170.5 189.25 168 172.25 151"/><line class="cls-3" x1="87.92" y1="75.54" x2="80.03" y2="83.43"/><line class="cls-4" x1="91.79" y1="79.41" x2="83.9" y2="87.3"/><line class="cls-5" x1="74.71" y1="94.56" x2="74.71" y2="117.52"/><line class="cls-6" x1="80.19" y1="94.56" x2="80.19" y2="117.52"/><rect class="cls-7" x="87.82" y="35.3" width="39.02" height="49.41" rx="7.18" ry="7.18" transform="translate(73.87 -58.31) rotate(45)"/><line class="cls-8" x1="101.12" y1="38.62" x2="109.77" y2="47.27"/><line class="cls-9" x1="93.53" y1="46.21" x2="102.18" y2="54.87"/><line class="cls-10" x1="85.94" y1="53.8" x2="94.59" y2="62.46"/><line class="cls-11" x1="120.06" y1="57.56" x2="128.71" y2="66.21"/><line class="cls-12" x1="112.46" y1="65.15" x2="121.12" y2="73.8"/><line class="cls-13" x1="104.87" y1="72.74" x2="113.53" y2="81.39"/><circle class="cls-14" cx="78.19" cy="89.14" r="5.83"/><rect class="cls-15" x="63.89" y="117.52" width="26.83" height="6.98" rx="2.77" ry="2.77"/><path class="cls-16" d="M36.78,179.21h-.43l-.8-1.21a3.73,3.73,0,0,1-1.2,1,3.2,3.2,0,0,1-1.57.38H32a3.51,3.51,0,0,1-1.45-.29,3.75,3.75,0,0,1-1.19-.79,3.68,3.68,0,0,1-.8-1.18,3.72,3.72,0,0,1-.29-1.45v-8.13a3.67,3.67,0,0,1,.29-1.44,3.62,3.62,0,0,1,.8-1.19,3.75,3.75,0,0,1,1.19-.79,3.51,3.51,0,0,1,1.45-.29h1.07a3.51,3.51,0,0,1,1.45.29,3.82,3.82,0,0,1,1.18.79,3.78,3.78,0,0,1,.8,1.19,3.67,3.67,0,0,1,.29,1.44v.61l-1.36.22v-.83A2.42,2.42,0,0,0,33,165.16h-1a2.43,2.43,0,0,0-.94.19,2.6,2.6,0,0,0-.78.52,2.41,2.41,0,0,0-.71,1.71v8.13a2.41,2.41,0,0,0,.71,1.71,2.45,2.45,0,0,0,.78.53,2.43,2.43,0,0,0,.94.19h1a2.43,2.43,0,0,0,.94-.19,2.3,2.3,0,0,0,.77-.53,2.41,2.41,0,0,0,.71-1.71v-3.16H33v-1.29h3.78Z"/><path class="cls-16" d="M48,177.16a3.72,3.72,0,0,1-2,2,3.54,3.54,0,0,1-1.45.29H43.53a3.58,3.58,0,0,1-1.45-.29,3.69,3.69,0,0,1-2.27-3.42V164.08h1.36v11.63a2.26,2.26,0,0,0,.19.94,2.51,2.51,0,0,0,1.29,1.3,2.48,2.48,0,0,0,1,.19h.95a2.36,2.36,0,0,0,1.71-.72,2.46,2.46,0,0,0,.7-1.71V164.08h1.37v11.63A3.72,3.72,0,0,1,48,177.16Z"/><path class="cls-16" d="M51.58,179.21V164.08h8.51v1.3H52.94V171h5.79v1.3H52.94v5.62h7.15v1.29Z"/><path class="cls-16" d="M71,175.71a3.56,3.56,0,0,1-.31,1.45,4,4,0,0,1-.84,1.18,3.84,3.84,0,0,1-1.21.79,3.63,3.63,0,0,1-1.46.29H66.08a3.63,3.63,0,0,1-1.46-.29,4,4,0,0,1-1.22-.79,4.12,4.12,0,0,1-.83-1.18,3.4,3.4,0,0,1-.31-1.45v-.6l1.36-.22v.82a2.12,2.12,0,0,0,.21.94,2.36,2.36,0,0,0,.55.77,2.47,2.47,0,0,0,.81.53,2.61,2.61,0,0,0,1,.19h.95a2.55,2.55,0,0,0,1.77-.72,2.51,2.51,0,0,0,.55-.77,2.12,2.12,0,0,0,.21-.94v-.45a2.53,2.53,0,0,0-.31-1.3,2.72,2.72,0,0,0-.81-.88,5,5,0,0,0-1.15-.62L66.05,172c-.45-.17-.89-.35-1.32-.56a4.93,4.93,0,0,1-1.14-.76,3.33,3.33,0,0,1-.81-1.13,3.79,3.79,0,0,1-.31-1.63v-.29a3.67,3.67,0,0,1,.29-1.44,3.62,3.62,0,0,1,.8-1.19,3.75,3.75,0,0,1,1.19-.79,3.51,3.51,0,0,1,1.45-.29h1a3.5,3.5,0,0,1,1.44.29,3.86,3.86,0,0,1,1.19.79,3.75,3.75,0,0,1,.79,1.19,3.5,3.5,0,0,1,.29,1.44V168l-1.36.22v-.61a2.26,2.26,0,0,0-.19-.94,2.43,2.43,0,0,0-.52-.77,2.39,2.39,0,0,0-.76-.52,2.48,2.48,0,0,0-1-.19h-.84a2.43,2.43,0,0,0-.94.19,2.6,2.6,0,0,0-.78.52,2.41,2.41,0,0,0-.71,1.71v.29a2.23,2.23,0,0,0,.31,1.22,2.73,2.73,0,0,0,.81.85,5.45,5.45,0,0,0,1.15.61c.42.18.86.35,1.31.53s.89.38,1.31.59a5.21,5.21,0,0,1,1.15.79,3.52,3.52,0,0,1,.81,1.15,3.89,3.89,0,0,1,.31,1.65Z"/><path class="cls-16" d="M77.58,165.38v13.83H76.22V165.38H72.61v-1.3H81.2v1.3Z"/><path class="cls-16" d="M88.11,179.21V164.08h1.36v13.84h5.8v1.29Z"/><path class="cls-16" d="M97.43,179.21V164.08H106v1.3H98.79V171h5.8v1.3h-5.8v5.62H106v1.29Z"/><path class="cls-16" d="M116.55,177.16a3.72,3.72,0,0,1-2,2,3.5,3.5,0,0,1-1.44.29h-1.08a3.51,3.51,0,0,1-1.45-.29,3.75,3.75,0,0,1-1.19-.79,3.85,3.85,0,0,1-.8-1.18,3.72,3.72,0,0,1-.29-1.45v-8.13a3.67,3.67,0,0,1,.29-1.44,3.67,3.67,0,0,1,2-2,3.51,3.51,0,0,1,1.45-.29h1.08a3.5,3.5,0,0,1,1.44.29,3.71,3.71,0,0,1,1.18.79,3.62,3.62,0,0,1,.8,1.19,3.67,3.67,0,0,1,.29,1.44v.61l-1.36.22v-.83a2.26,2.26,0,0,0-.19-.94,2.43,2.43,0,0,0-.52-.77,2.36,2.36,0,0,0-1.71-.71h-1a2.41,2.41,0,0,0-1.71.71,2.3,2.3,0,0,0-.53.77,2.43,2.43,0,0,0-.19.94v8.13a2.43,2.43,0,0,0,.19.94,2.57,2.57,0,0,0,1.3,1.3,2.43,2.43,0,0,0,.94.19h1a2.52,2.52,0,0,0,1-.19,2.37,2.37,0,0,0,.76-.53,2.43,2.43,0,0,0,.52-.77,2.26,2.26,0,0,0,.19-.94v-.82l1.36.22v.6A3.72,3.72,0,0,1,116.55,177.16Z"/><path class="cls-16" d="M123.54,165.38v13.83h-1.36V165.38h-3.61v-1.3h8.58v1.3Z"/><path class="cls-16" d="M137.32,177.16a3.82,3.82,0,0,1-.79,1.18,3.86,3.86,0,0,1-1.19.79,3.5,3.5,0,0,1-1.44.29h-1.08a3.54,3.54,0,0,1-1.45-.29,3.69,3.69,0,0,1-2-2,3.72,3.72,0,0,1-.29-1.45V164.08h1.37v11.63a2.41,2.41,0,0,0,.71,1.71,2.41,2.41,0,0,0,.77.53,2.47,2.47,0,0,0,.94.19h1a2.48,2.48,0,0,0,.95-.19,2.26,2.26,0,0,0,.76-.53,2.43,2.43,0,0,0,.52-.77,2.26,2.26,0,0,0,.19-.94V164.08h1.36v11.63A3.54,3.54,0,0,1,137.32,177.16Z"/><path class="cls-16" d="M148,179.21l-4.11-6.46H142v6.46h-1.36V164.08h4.81a3.5,3.5,0,0,1,1.44.29,3.69,3.69,0,0,1,2,2,3.75,3.75,0,0,1,.29,1.45V169a3.7,3.7,0,0,1-2.27,3.43,3.5,3.5,0,0,1-1.44.29l4.1,6.46Zm-.18-11.41a2.29,2.29,0,0,0-.19-.94,2.55,2.55,0,0,0-.52-.77,2.36,2.36,0,0,0-1.71-.71H142v6.08h3.38a2.32,2.32,0,0,0,1.71-.72,2.55,2.55,0,0,0,.52-.77,2.26,2.26,0,0,0,.19-.94Z"/><path class="cls-16" d="M152.15,179.21V164.08h8.52v1.3h-7.16V171h5.79v1.3h-5.79v5.62h7.16v1.29Z"/><path class="cls-16" d="M171.56,175.71a3.4,3.4,0,0,1-.31,1.45,4,4,0,0,1-.84,1.18,3.84,3.84,0,0,1-1.21.79,3.63,3.63,0,0,1-1.46.29h-1.09a3.63,3.63,0,0,1-1.46-.29,4,4,0,0,1-1.22-.79,4.12,4.12,0,0,1-.83-1.18,3.4,3.4,0,0,1-.31-1.45v-.6l1.36-.22v.82a2.12,2.12,0,0,0,.21.94,2.36,2.36,0,0,0,.55.77,2.47,2.47,0,0,0,.81.53,2.61,2.61,0,0,0,1,.19h.95a2.57,2.57,0,0,0,1-.19,2.47,2.47,0,0,0,.81-.53,2.51,2.51,0,0,0,.55-.77,2.12,2.12,0,0,0,.21-.94v-.45a2.53,2.53,0,0,0-.31-1.3,2.72,2.72,0,0,0-.81-.88,5,5,0,0,0-1.15-.62l-1.31-.51c-.45-.17-.89-.35-1.32-.56a4.93,4.93,0,0,1-1.14-.76,3.33,3.33,0,0,1-.81-1.13,3.79,3.79,0,0,1-.31-1.63v-.29a3.67,3.67,0,0,1,.29-1.44,3.62,3.62,0,0,1,.8-1.19,3.75,3.75,0,0,1,1.19-.79,3.51,3.51,0,0,1,1.45-.29h1a3.5,3.5,0,0,1,1.44.29,3.86,3.86,0,0,1,1.19.79,3.75,3.75,0,0,1,.79,1.19,3.5,3.5,0,0,1,.29,1.44V168l-1.36.22v-.61a2.26,2.26,0,0,0-.19-.94,2.43,2.43,0,0,0-.52-.77,2.39,2.39,0,0,0-.76-.52,2.48,2.48,0,0,0-1-.19h-.84a2.41,2.41,0,0,0-1.71.71,2.3,2.3,0,0,0-.53.77,2.43,2.43,0,0,0-.19.94v.29a2.23,2.23,0,0,0,.31,1.22,2.73,2.73,0,0,0,.81.85,5.45,5.45,0,0,0,1.15.61c.42.18.86.35,1.31.53s.89.38,1.31.59a5.21,5.21,0,0,1,1.15.79,3.52,3.52,0,0,1,.81,1.15,3.89,3.89,0,0,1,.31,1.65Z"/></g></svg>