<svg xmlns="http://www.w3.org/2000/svg" xmlns:xlink="http://www.w3.org/1999/xlink" viewBox="0 0 200 200"><defs><style>.cls-1{fill:#8dd6ff;opacity:0.17;}.cls-1,.cls-2{stroke:#007acc;stroke-miterlimit:10;}.cls-2{fill:#8faaff;opacity:0.2;}.cls-3{fill:#c5fff9;opacity:0.14;}.cls-4,.cls-5,.cls-6,.cls-7,.cls-8,.cls-9{fill:none;stroke-linecap:round;stroke-linejoin:round;stroke-width:3px;}.cls-4{stroke:url(#linear-gradient);}.cls-5{stroke:url(#linear-gradient-2);}.cls-6{stroke:url(#linear-gradient-3);}.cls-7{stroke:url(#linear-gradient-4);}.cls-8{stroke:url(#linear-gradient-5);}.cls-9{stroke:url(#linear-gradient-6);}.cls-10{fill:#fff;}</style><linearGradient id="linear-gradient" x1="-579.77" y1="1617.18" x2="-513.89" y2="1617.18" gradientTransform="matrix(0.82, -0.57, 0.57, 0.82, -377.97, -1556.31)" gradientUnits="userSpaceOnUse"><stop offset="0" stop-color="#80cfff"/><stop offset="1" stop-color="#83ffde"/></linearGradient><linearGradient id="linear-gradient-2" x1="68.69" y1="43.41" x2="78.79" y2="43.41" gradientTransform="matrix(1, 0, 0, 1, 0, 0)" xlink:href="#linear-gradient"/><linearGradient id="linear-gradient-3" x1="54.17" y1="92.57" x2="68.47" y2="92.57" gradientTransform="matrix(1, 0, 0, 1, 0, 0)" xlink:href="#linear-gradient"/><linearGradient id="linear-gradient-4" x1="98.25" y1="118.43" x2="101.25" y2="118.43" gradientTransform="matrix(1, 0, 0, 1, 0, 0)" xlink:href="#linear-gradient"/><linearGradient id="linear-gradient-5" x1="-5506.82" y1="43.41" x2="-5496.73" y2="43.41" gradientTransform="matrix(-1, 0, 0, 1, -5376.01, 0)" xlink:href="#linear-gradient"/><linearGradient id="linear-gradient-6" x1="-5521.34" y1="92.57" x2="-5507.05" y2="92.57" gradientTransform="matrix(-1, 0, 0, 1, -5376.01, 0)" xlink:href="#linear-gradient"/></defs><title>infotainment</title><g id="Layer_2" data-name="Layer 2"><polygon class="cls-1" points="174.25 10 100.25 10 26.25 10 9.75 26.5 9.75 78 9.75 129.5 26.25 146 100.25 146 174.25 146 190.75 129.5 190.75 78 190.75 26.5 174.25 10"/><polygon class="cls-2" points="172.25 151 99.25 151 26.25 151 9.25 168 9.25 170.5 9.25 173 26.25 190 99.25 190 172.25 190 189.25 173 189.25 170.5 189.25 168 172.25 151"/><path class="cls-3" d="M91.88,65.56l6.3-17.14a2.52,2.52,0,0,1,4.76.08l5.7,17.35a2.51,2.51,0,0,0,2.3,1.74l18.25.69a2.52,2.52,0,0,1,1.39,4.55L115.83,83.61a2.51,2.51,0,0,0-.93,2.72l5,17.57a2.52,2.52,0,0,1-3.9,2.73L101.17,95.94a2.51,2.51,0,0,0-2.88,0L83.12,106.06a2.52,2.52,0,0,1-3.8-2.87l5.59-17.38a2.53,2.53,0,0,0-.84-2.76L69.71,71.77a2.52,2.52,0,0,1,1.55-4.5l18.26-.06A2.51,2.51,0,0,0,91.88,65.56Z"/><path class="cls-4" d="M91.88,65.56l6.3-17.14a2.52,2.52,0,0,1,4.76.08l5.7,17.35a2.51,2.51,0,0,0,2.3,1.74l18.25.69a2.52,2.52,0,0,1,1.39,4.55L115.83,83.61a2.51,2.51,0,0,0-.93,2.72l5,17.57a2.52,2.52,0,0,1-3.9,2.73L101.17,95.94a2.51,2.51,0,0,0-2.88,0L83.12,106.06a2.52,2.52,0,0,1-3.8-2.87l5.59-17.38a2.53,2.53,0,0,0-.84-2.76L69.71,71.77a2.52,2.52,0,0,1,1.55-4.5l18.26-.06A2.51,2.51,0,0,0,91.88,65.56Z"/><line class="cls-5" x1="77.29" y1="48.22" x2="70.19" y2="38.6"/><line class="cls-6" x1="66.97" y1="90.6" x2="55.67" y2="94.55"/><line class="cls-7" x1="99.75" y1="112.46" x2="99.75" y2="124.4"/><line class="cls-8" x1="122.21" y1="48.22" x2="129.31" y2="38.6"/><line class="cls-9" x1="132.53" y1="90.6" x2="143.83" y2="94.55"/><path class="cls-10" d="M40.81,179.21V164.08h1.36v15.13Z"/><path class="cls-10" d="M53.43,179.21l-6.31-11-.13-.65v11.67H45.63V164.08h.71l6.31,11,.14.64V164.08h1.36v15.13Z"/><path class="cls-10" d="M59,165.38V171h5.8v1.3H59v6.91H57.61V164.08h8.52v1.3Z"/><path class="cls-10" d="M76.3,177.16a3.68,3.68,0,0,1-.8,1.18,3.55,3.55,0,0,1-1.18.79,3.5,3.5,0,0,1-1.44.29H71.8a3.54,3.54,0,0,1-1.45-.29,3.59,3.59,0,0,1-1.19-.79,3.85,3.85,0,0,1-.8-1.18,3.75,3.75,0,0,1-.29-1.45v-8.13a3.67,3.67,0,0,1,.29-1.44,3.89,3.89,0,0,1,.8-1.19,3.75,3.75,0,0,1,1.19-.79,3.54,3.54,0,0,1,1.45-.29h1.08a3.5,3.5,0,0,1,1.44.29,3.69,3.69,0,0,1,2,2,3.67,3.67,0,0,1,.29,1.44v8.13A3.75,3.75,0,0,1,76.3,177.16Zm-1.07-9.58a2.26,2.26,0,0,0-.19-.94,2.55,2.55,0,0,0-.52-.77,2.51,2.51,0,0,0-.76-.52,2.48,2.48,0,0,0-1-.19h-1a2.43,2.43,0,0,0-.94.19,2.55,2.55,0,0,0-.77.52,2.58,2.58,0,0,0-.53.77,2.42,2.42,0,0,0-.18.94v8.13a2.42,2.42,0,0,0,.18.94,2.46,2.46,0,0,0,.53.77,2.36,2.36,0,0,0,1.71.72h1a2.48,2.48,0,0,0,1-.19,2.37,2.37,0,0,0,.76-.53,2.43,2.43,0,0,0,.52-.77,2.26,2.26,0,0,0,.19-.94Z"/><path class="cls-10" d="M83.52,165.38v13.83H82.15V165.38H78.54v-1.3h8.59v1.3Z"/><path class="cls-10" d="M94.32,175.69H89.53l-1,3.52H87.12l4.44-15.13h.72l4.45,15.13h-1.4Zm-4.42-1.3H94l-2-7,0-.56,0,.56Z"/><path class="cls-10" d="M98.67,179.21V164.08H100v15.13Z"/><path class="cls-10" d="M111.3,179.21l-6.32-11-.12-.65v11.67H103.5V164.08h.7l6.32,11,.13.64V164.08H112v15.13Z"/><path class="cls-10" d="M124.8,179.21V168.84l-.1.64-3.51,9.73h-.72l-3.55-9.73-.08-.64v10.37h-1.36V164.08h.7l4.6,12.41,0,.56,0-.56,4.58-12.41h.72v15.13Z"/><path class="cls-10" d="M129.61,179.21V164.08h8.52v1.3H131V171h5.8v1.3H131v5.62h7.16v1.29Z"/><path class="cls-10" d="M148.52,179.21l-6.31-11-.12-.65v11.67h-1.36V164.08h.7l6.31,11,.14.64V164.08h1.36v15.13Z"/><path class="cls-10" d="M156.38,165.38v13.83H155V165.38h-3.61v-1.3H160v1.3Z"/></g></svg>