<svg xmlns="http://www.w3.org/2000/svg" xmlns:xlink="http://www.w3.org/1999/xlink" viewBox="0 0 200 200"><defs><style>.cls-1{fill:#8dd6ff;opacity:0.17;}.cls-1,.cls-2{stroke:#007acc;stroke-miterlimit:10;}.cls-2{fill:#8faaff;opacity:0.2;}.cls-15,.cls-3{fill:#fff;}.cls-3{opacity:0.16;}.cls-10,.cls-11,.cls-12,.cls-13,.cls-14,.cls-4,.cls-5,.cls-6,.cls-7,.cls-8,.cls-9{fill:none;stroke-linecap:round;stroke-linejoin:round;stroke-width:3px;}.cls-4{stroke:url(#linear-gradient);}.cls-5{stroke:url(#linear-gradient-2);}.cls-6{stroke:url(#linear-gradient-3);}.cls-7{stroke:url(#linear-gradient-4);}.cls-8{stroke:url(#linear-gradient-5);}.cls-9{stroke:url(#linear-gradient-6);}.cls-10{stroke:url(#linear-gradient-7);}.cls-11{stroke:url(#linear-gradient-8);}.cls-12{stroke:url(#linear-gradient-9);}.cls-13{stroke:url(#linear-gradient-10);}.cls-14{stroke:url(#linear-gradient-11);}</style><linearGradient id="linear-gradient" x1="98.25" y1="99.07" x2="101.25" y2="99.07" gradientUnits="userSpaceOnUse"><stop offset="0" stop-color="#80cfff"/><stop offset="1" stop-color="#83ffde"/></linearGradient><linearGradient id="linear-gradient-2" x1="71.88" y1="80.33" x2="127.62" y2="80.33" xlink:href="#linear-gradient"/><linearGradient id="linear-gradient-3" x1="78.39" y1="66.73" x2="98.97" y2="66.73" xlink:href="#linear-gradient"/><linearGradient id="linear-gradient-4" x1="88.07" y1="118.88" x2="111.43" y2="118.88" xlink:href="#linear-gradient"/><linearGradient id="linear-gradient-5" x1="92.79" y1="128.05" x2="106.71" y2="128.05" xlink:href="#linear-gradient"/><linearGradient id="linear-gradient-6" x1="66.06" y1="43.54" x2="74.45" y2="43.54" xlink:href="#linear-gradient"/><linearGradient id="linear-gradient-7" x1="52.72" y1="73.03" x2="63.64" y2="73.03" xlink:href="#linear-gradient"/><linearGradient id="linear-gradient-8" x1="-4021.01" y1="43.64" x2="-4012.41" y2="43.64" gradientTransform="matrix(-1, 0, 0, 1, -3887.57, 0)" xlink:href="#linear-gradient"/><linearGradient id="linear-gradient-9" x1="-3988.82" y1="31.46" x2="-3985.82" y2="31.46" gradientTransform="matrix(-1, 0, 0, 1, -3887.57, 0)" xlink:href="#linear-gradient"/><linearGradient id="linear-gradient-10" x1="-4034.35" y1="73.03" x2="-4023.43" y2="73.03" gradientTransform="matrix(-1, 0, 0, 1, -3887.57, 0)" xlink:href="#linear-gradient"/><linearGradient id="linear-gradient-11" x1="94.5" y1="84.53" x2="105" y2="84.53" xlink:href="#linear-gradient"/></defs><title>initiatives</title><g id="Layer_2" data-name="Layer 2"><polygon class="cls-1" points="174.25 10 100.25 10 26.25 10 9.75 26.5 9.75 78 9.75 129.5 26.25 146 100.25 146 174.25 146 190.75 129.5 190.75 78 190.75 26.5 174.25 10"/><polygon class="cls-2" points="172.25 151 99.25 151 26.25 151 9.25 168 9.25 170.5 9.25 173 26.25 190 99.25 190 172.25 190 189.25 173 189.25 170.5 189.25 168 172.25 151"/><rect class="cls-3" x="89.57" y="115.48" width="20.36" height="6.8" rx="2.47" ry="2.47"/><path class="cls-3" d="M96.75,51A26.36,26.36,0,0,0,80.12,94.78a25.2,25.2,0,0,1,5.66,11,5.26,5.26,0,0,0,5.08,4.12h17.76a5.3,5.3,0,0,0,5.12-4.12,26.08,26.08,0,0,1,5.77-11.1A26.38,26.38,0,0,0,96.75,51Z"/><line class="cls-4" x1="99.75" y1="88.28" x2="99.75" y2="109.86"/><path class="cls-5" d="M96.75,51A26.36,26.36,0,0,0,80.12,94.78a25.2,25.2,0,0,1,5.66,11,5.26,5.26,0,0,0,5.08,4.12h17.76a5.3,5.3,0,0,0,5.12-4.12,26.08,26.08,0,0,1,5.77-11.1A26.38,26.38,0,0,0,96.75,51Z"/><path class="cls-6" d="M97.47,58.05A20,20,0,0,0,79.89,75.41"/><rect class="cls-7" x="89.57" y="115.48" width="20.36" height="6.8" rx="2.47" ry="2.47"/><line class="cls-8" x1="94.29" y1="128.05" x2="105.21" y2="128.05"/><line class="cls-9" x1="72.95" y1="46.23" x2="67.56" y2="40.84"/><line class="cls-10" x1="62.14" y1="73.03" x2="54.22" y2="73.03"/><line class="cls-11" x1="126.34" y1="46.44" x2="131.94" y2="40.84"/><line class="cls-12" x1="99.75" y1="27.5" x2="99.75" y2="35.42"/><line class="cls-13" x1="137.36" y1="73.03" x2="145.28" y2="73.03"/><circle class="cls-14" cx="99.75" cy="84.53" r="3.75"/><path class="cls-15" d="M55.52,179.21V164.08h1.36v15.13Z"/><path class="cls-15" d="M68.15,179.21l-6.32-11-.12-.65v11.67H60.35V164.08h.7l6.32,11,.13.64V164.08h1.36v15.13Z"/><path class="cls-15" d="M72.33,179.21V164.08h1.36v15.13Z"/><path class="cls-15" d="M80.82,165.38v13.83H79.46V165.38H75.85v-1.3h8.58v1.3Z"/><path class="cls-15" d="M86.6,179.21V164.08H88v15.13Z"/><path class="cls-15" d="M97.1,175.69H92.31l-1,3.52H89.9l4.43-15.13h.72l4.46,15.13H98.1Zm-4.42-1.3h4.06l-2-7,0-.56,0,.56Z"/><path class="cls-15" d="M104.48,165.38v13.83h-1.36V165.38H99.51v-1.3h8.58v1.3Z"/><path class="cls-15" d="M110.25,179.21V164.08h1.36v15.13Z"/><path class="cls-15" d="M118.32,175.89l0,.56,0-.56,3.36-11.81h1.4l-4.45,15.13H118l-4.44-15.13H115Z"/><path class="cls-15" d="M125.1,179.21V164.08h8.52v1.3h-7.16V171h5.8v1.3h-5.8v5.62h7.16v1.29Z"/><path class="cls-15" d="M144.51,175.71a3.4,3.4,0,0,1-.31,1.45,3.77,3.77,0,0,1-.83,1.18,3.72,3.72,0,0,1-1.22.79,3.6,3.6,0,0,1-1.46.3h-1.08a3.65,3.65,0,0,1-1.47-.3,3.83,3.83,0,0,1-2-2,3.41,3.41,0,0,1-.32-1.45v-.6l1.37-.22v.82a2.12,2.12,0,0,0,.2.94,2.54,2.54,0,0,0,.56.78,2.69,2.69,0,0,0,.8.52,2.66,2.66,0,0,0,1,.19h.95a2.57,2.57,0,0,0,1-.19,2.59,2.59,0,0,0,1.36-1.3,2.26,2.26,0,0,0,.2-.94v-.45a2.55,2.55,0,0,0-.3-1.3,2.87,2.87,0,0,0-.82-.88,5,5,0,0,0-1.14-.62l-1.32-.51c-.45-.17-.88-.35-1.31-.56a4.78,4.78,0,0,1-1.15-.76,3.63,3.63,0,0,1-.81-1.13,4,4,0,0,1-.3-1.63v-.29a3.5,3.5,0,0,1,.29-1.44,3.61,3.61,0,0,1,2-2,3.54,3.54,0,0,1,1.45-.29h1a3.51,3.51,0,0,1,1.45.29,3.82,3.82,0,0,1,1.18.79,3.89,3.89,0,0,1,.8,1.19,3.67,3.67,0,0,1,.29,1.44V168l-1.36.22v-.61a2.43,2.43,0,0,0-.19-.94,2.55,2.55,0,0,0-.52-.77,2.53,2.53,0,0,0-1.71-.71h-.84a2.31,2.31,0,0,0-.95.2,2.35,2.35,0,0,0-.77.51,2.38,2.38,0,0,0-.52.77,2.26,2.26,0,0,0-.19.94v.29a2.32,2.32,0,0,0,.3,1.22,2.88,2.88,0,0,0,.82.85,5.36,5.36,0,0,0,1.14.61l1.32.53c.45.18.88.38,1.31.59a4.92,4.92,0,0,1,1.14.79,3.7,3.7,0,0,1,.82,1.15,4.05,4.05,0,0,1,.3,1.65Z"/></g></svg>