<svg xmlns="http://www.w3.org/2000/svg" xmlns:xlink="http://www.w3.org/1999/xlink" viewBox="0 0 499.09 98" preserveAspectRatio="none"><defs><style>.cls-1{fill:none;stroke-linecap:round;stroke-linejoin:round;stroke:url(#linear-gradient);}.cls-2{opacity:0.13;fill:url(#linear-gradient-2);}.cls-3,.cls-4{font-size:31.19px;fill:#fff;}.cls-3,.cls-4,.cls-6{font-family:Abel;}.cls-4{letter-spacing:0em;}.cls-5{letter-spacing:-0.01em;}.cls-6{font-size:24.13px;fill:#81def4;}.cls-7{letter-spacing:-0.05em;}.cls-8{letter-spacing:-0.04em;}.cls-9{letter-spacing:-0.01em;}</style><linearGradient id="linear-gradient" y1="49" x2="499.09" y2="49" gradientUnits="userSpaceOnUse"><stop offset="0" stop-color="#80cfff"/><stop offset="1" stop-color="#83ffde"/></linearGradient><linearGradient id="linear-gradient-2" x1="0.5" y1="49" x2="498.59" y2="49" xlink:href="#linear-gradient"/></defs><title>dates</title><g id="Layer_2" data-name="Layer 2"><g id="Layer_1-2" data-name="Layer 1"><polyline class="cls-1" points="23.59 71.5 0.5 48.41 0.52 48.39 23.59 27 50.09 0.5 250.09 0.5 450.09 0.5 476.59 27 498.59 49 476.59 71 450.09 97.5 250.09 97.5 50.09 97.5 23.59 71.5"/><polyline class="cls-2" points="23.59 71.5 0.5 48.41 0.52 48.39 23.59 27 50.09 0.5 250.09 0.5 450.09 0.5 476.59 27 498.59 49 476.59 71 450.09 97.5 250.09 97.5 50.09 97.5 23.59 71.5"/><text class="cls-3" transform="translate(125.13 42.62)">1</text><text class="cls-4" transform="translate(141.26 32.23) scale(0.58)">st</text><text class="cls-3" transform="translate(155.92 42.62)"><tspan xml:space="preserve"> to 4</tspan></text><text class="cls-3" transform="translate(210.98 32.23) scale(0.58)">th</text><text class="cls-3" transform="translate(229.55 42.62)"> March 2018</text><text class="cls-6" transform="translate(120.09 79.66)">Let’s Celebrate Technology</text></g></g></svg>