<svg xmlns="http://www.w3.org/2000/svg" xmlns:xlink="http://www.w3.org/1999/xlink" viewBox="0 0 200 200"><defs><style>.cls-1{fill:#8dd6ff;opacity:0.17;}.cls-1,.cls-2{stroke:#007acc;stroke-miterlimit:10;}.cls-2{fill:#8faaff;opacity:0.2;}.cls-3,.cls-5{fill:#fff;}.cls-4,.cls-6{fill:none;stroke-linecap:round;stroke-linejoin:round;stroke-width:3px;}.cls-4{stroke:url(#linear-gradient);}.cls-5{opacity:0.16;}.cls-6{stroke:url(#linear-gradient-2);}</style><linearGradient id="linear-gradient" x1="-705.32" y1="-1524.33" x2="-648.24" y2="-1524.33" gradientTransform="translate(-518.93 1616.54) rotate(45)" gradientUnits="userSpaceOnUse"><stop offset="0" stop-color="#80cfff"/><stop offset="1" stop-color="#83ffde"/></linearGradient><linearGradient id="linear-gradient-2" x1="-657.19" y1="-1524.33" x2="-590.37" y2="-1524.33" xlink:href="#linear-gradient"/></defs><title>workshops_1</title><g id="Layer_2" data-name="Layer 2"><polygon class="cls-1" points="174.25 10 100.25 10 26.25 10 9.75 26.5 9.75 78 9.75 129.5 26.25 146 100.25 146 174.25 146 190.75 129.5 190.75 78 190.75 26.5 174.25 10"/><polygon class="cls-2" points="172.25 151 99.25 151 26.25 151 9.25 168 9.25 170.5 9.25 173 26.25 190 99.25 190 172.25 190 189.25 173 189.25 170.5 189.25 168 172.25 151"/><path class="cls-3" d="M57.88,179.21h-.71l-2.94-11.39,0-.59-.06.59L51.2,179.21h-.71l-4-15.13h1.36l3,11.5,0,.56,0-.56,2.91-11.5h.76l2.92,11.5,0,.56.05-.56,3-11.5h1.36Z"/><path class="cls-3" d="M72.05,177.16a3.78,3.78,0,0,1-2,2,3.68,3.68,0,0,1-1.45.29H67.55a3.67,3.67,0,0,1-2.64-1.09,3.68,3.68,0,0,1-.8-1.18,3.72,3.72,0,0,1-.29-1.45v-8.13a3.67,3.67,0,0,1,.29-1.44,3.69,3.69,0,0,1,2-2,3.59,3.59,0,0,1,1.46-.29h1.07a3.51,3.51,0,0,1,1.45.29,3.82,3.82,0,0,1,1.18.79,3.89,3.89,0,0,1,.8,1.19,3.67,3.67,0,0,1,.29,1.44v8.13A3.72,3.72,0,0,1,72.05,177.16ZM71,167.58a2.43,2.43,0,0,0-.19-.94,2.55,2.55,0,0,0-.52-.77,2.35,2.35,0,0,0-1.71-.7h-1a2.3,2.3,0,0,0-1.71.7,2.41,2.41,0,0,0-.53.77,2.26,2.26,0,0,0-.19.94v8.13a2.26,2.26,0,0,0,.19.94,2.45,2.45,0,0,0,.53.78,2.36,2.36,0,0,0,1.71.71h1a2.41,2.41,0,0,0,1.71-.71,2.6,2.6,0,0,0,.52-.78,2.43,2.43,0,0,0,.19-.94Z"/><path class="cls-3" d="M82.7,179.21l-4.1-6.46H76.73v6.46H75.37V164.08h4.8a3.75,3.75,0,0,1,1.45.29,3.79,3.79,0,0,1,1.18.8,3.55,3.55,0,0,1,.79,1.18,3.59,3.59,0,0,1,.3,1.45V169a3.55,3.55,0,0,1-.3,1.45,3.69,3.69,0,0,1-.79,1.19,3.76,3.76,0,0,1-1.18.79,3.58,3.58,0,0,1-1.45.29l4.11,6.46Zm-.18-11.41a2.29,2.29,0,0,0-.19-.94,2.52,2.52,0,0,0-.51-.77,2.38,2.38,0,0,0-.77-.52,2.29,2.29,0,0,0-.94-.19H76.73v6.08h3.38a2.47,2.47,0,0,0,.94-.19,2.44,2.44,0,0,0,1.28-1.3,2.26,2.26,0,0,0,.19-.94Z"/><path class="cls-3" d="M86.87,179.21V164.08h1.36v15.13Zm7.39,0-5.7-7.56,5.7-7.57H96l-5.82,7.57L96,179.21Z"/><path class="cls-3" d="M106.41,175.71a3.4,3.4,0,0,1-.31,1.45,4,4,0,0,1-.84,1.18,3.87,3.87,0,0,1-1.21.8,3.8,3.8,0,0,1-1.46.29H101.5a3.8,3.8,0,0,1-1.46-.29,3.87,3.87,0,0,1-1.21-.8,4,4,0,0,1-.84-1.18,3.56,3.56,0,0,1-.31-1.45v-.6l1.36-.22v.82a2.12,2.12,0,0,0,.21.94,2.69,2.69,0,0,0,.55.78,2.74,2.74,0,0,0,.81.52,2.66,2.66,0,0,0,1,.19h1a2.65,2.65,0,0,0,1-.19,2.69,2.69,0,0,0,.8-.52,2.51,2.51,0,0,0,.55-.78,2.12,2.12,0,0,0,.21-.94v-.45a2.43,2.43,0,0,0-.31-1.3,2.72,2.72,0,0,0-.81-.88,5,5,0,0,0-1.15-.62l-1.31-.51a13.94,13.94,0,0,1-1.31-.56,4.78,4.78,0,0,1-1.15-.76,3.33,3.33,0,0,1-.81-1.13,3.76,3.76,0,0,1-.31-1.63v-.29a3.67,3.67,0,0,1,.29-1.44A3.89,3.89,0,0,1,99,165a3.75,3.75,0,0,1,1.19-.79,3.51,3.51,0,0,1,1.45-.29h1a3.58,3.58,0,0,1,1.45.29,3.94,3.94,0,0,1,1.18.79,3.69,3.69,0,0,1,.79,1.19,3.51,3.51,0,0,1,.3,1.44V168l-1.37.22v-.61a2.26,2.26,0,0,0-.19-.94,2.52,2.52,0,0,0-.51-.77,2.55,2.55,0,0,0-.77-.52,2.46,2.46,0,0,0-.94-.18h-.85a2.41,2.41,0,0,0-2.43,2.41v.29a2.32,2.32,0,0,0,.31,1.22,2.85,2.85,0,0,0,.81.85,5.45,5.45,0,0,0,1.15.61c.42.18.86.35,1.31.53s.89.38,1.32.59a5.39,5.39,0,0,1,1.14.79,3.52,3.52,0,0,1,.81,1.15,3.89,3.89,0,0,1,.31,1.65Z"/><path class="cls-3" d="M116.49,179.21V172.3H110.7v6.91h-1.37V164.08h1.37V171h5.79v-6.92h1.36v15.13Z"/><path class="cls-3" d="M129.32,177.16a3.68,3.68,0,0,1-.8,1.18,3.73,3.73,0,0,1-1.18.8,3.67,3.67,0,0,1-1.44.29h-1.08a3.72,3.72,0,0,1-1.45-.29,3.78,3.78,0,0,1-1.19-.8,3.85,3.85,0,0,1-.8-1.18,3.72,3.72,0,0,1-.29-1.45v-8.13a3.67,3.67,0,0,1,.29-1.44,3.89,3.89,0,0,1,.8-1.19,3.75,3.75,0,0,1,1.19-.79,3.54,3.54,0,0,1,1.45-.29h1.08a3.5,3.5,0,0,1,1.44.29,3.69,3.69,0,0,1,2,2,3.67,3.67,0,0,1,.29,1.44v8.13A3.72,3.72,0,0,1,129.32,177.16Zm-1.07-9.58a2.26,2.26,0,0,0-.19-.94,2.55,2.55,0,0,0-.52-.77,2.3,2.3,0,0,0-1.71-.7h-1a2.42,2.42,0,0,0-.94.18,2.55,2.55,0,0,0-.77.52,2.58,2.58,0,0,0-.53.77,2.43,2.43,0,0,0-.19.94v8.13a2.43,2.43,0,0,0,.19.94,2.63,2.63,0,0,0,.53.78,2.55,2.55,0,0,0,.77.52,2.43,2.43,0,0,0,.94.19h1a2.36,2.36,0,0,0,1.71-.71,2.6,2.6,0,0,0,.52-.78,2.26,2.26,0,0,0,.19-.94Z"/><path class="cls-3" d="M141.09,171.13a3.68,3.68,0,0,1-.8,1.18,3.67,3.67,0,0,1-2.64,1.09h-3.43v5.81h-1.36V164.08h4.79a3.77,3.77,0,0,1,1.46.29,3.78,3.78,0,0,1,2,2,3.75,3.75,0,0,1,.29,1.45v1.88A3.68,3.68,0,0,1,141.09,171.13ZM140,167.8a2.29,2.29,0,0,0-.19-.94,2.55,2.55,0,0,0-.52-.77,2.49,2.49,0,0,0-.77-.52,2.34,2.34,0,0,0-.95-.19h-3.37v6.72h3.37a2.34,2.34,0,0,0,.95-.19,2.68,2.68,0,0,0,.77-.52,2.51,2.51,0,0,0,.52-.76,2.3,2.3,0,0,0,.19-.95Z"/><path class="cls-3" d="M152.27,175.71a3.4,3.4,0,0,1-.31,1.45,3.94,3.94,0,0,1-.83,1.18,4,4,0,0,1-1.22.8,3.77,3.77,0,0,1-1.46.29h-1.09a3.8,3.8,0,0,1-1.46-.29,4,4,0,0,1-2.05-2,3.56,3.56,0,0,1-.31-1.45v-.6l1.36-.22v.82a2.12,2.12,0,0,0,.21.94,2.69,2.69,0,0,0,.55.78,2.88,2.88,0,0,0,.81.52,2.66,2.66,0,0,0,1,.19h.95a2.57,2.57,0,0,0,1-.19,2.59,2.59,0,0,0,1.36-1.3,2.26,2.26,0,0,0,.2-.94v-.45a2.43,2.43,0,0,0-.31-1.3,2.72,2.72,0,0,0-.81-.88,5.19,5.19,0,0,0-1.14-.62l-1.32-.51a13.94,13.94,0,0,1-1.31-.56,4.78,4.78,0,0,1-1.15-.76,3.48,3.48,0,0,1-.81-1.13,3.92,3.92,0,0,1-.31-1.63v-.29a3.51,3.51,0,0,1,.3-1.44,3.69,3.69,0,0,1,.79-1.19,3.75,3.75,0,0,1,1.19-.79,3.54,3.54,0,0,1,1.45-.29h1a3.51,3.51,0,0,1,1.45.29,3.82,3.82,0,0,1,1.18.79,3.89,3.89,0,0,1,.8,1.19,3.67,3.67,0,0,1,.29,1.44V168l-1.36.22v-.61a2.43,2.43,0,0,0-.19-.94,2.55,2.55,0,0,0-.52-.77,2.35,2.35,0,0,0-1.71-.7h-.85a2.46,2.46,0,0,0-.94.18,2.55,2.55,0,0,0-.77.52,2.38,2.38,0,0,0-.52.77,2.26,2.26,0,0,0-.19.94v.29a2.32,2.32,0,0,0,.3,1.22,3,3,0,0,0,.81.85,5.45,5.45,0,0,0,1.15.61l1.31.53c.46.18.89.38,1.32.59a5.14,5.14,0,0,1,1.14.79,3.7,3.7,0,0,1,.82,1.15,4.05,4.05,0,0,1,.3,1.65Z"/><path class="cls-4" d="M119.28,59.44a30.85,30.85,0,0,0-2.13-4.51l.06.06,5.65-5.65a3.68,3.68,0,0,0,0-5.21L119.73,41l-3.12-3.13a3.69,3.69,0,0,0-5.22,0l-5.65,5.65.07.07a30.81,30.81,0,0,0-7.27-3h.06v-8a3.69,3.69,0,0,0-3.69-3.69H86.07a3.69,3.69,0,0,0-3.69,3.69v8h.07a30.47,30.47,0,0,0-7.27,3l.06-.07-5.65-5.65a3.68,3.68,0,0,0-5.21,0L61.25,41l-3.13,3.13a3.68,3.68,0,0,0,0,5.21L63.77,55l.07-.06a30.47,30.47,0,0,0-3,7.27v-.07h-8a3.69,3.69,0,0,0-3.69,3.69v8.84a3.69,3.69,0,0,0,3.69,3.69h8v-.06a30.81,30.81,0,0,0,3,7.27l-.07-.07-5.65,5.65a3.69,3.69,0,0,0,0,5.22l3.13,3.12,3.13,3.13a3.68,3.68,0,0,0,5.21,0L75.24,97l-.06-.06a30.1,30.1,0,0,0,3.56,1.75M83.27,84a15.29,15.29,0,0,1-3.75-2.77,15.51,15.51,0,0,1,21.94-21.94,15.33,15.33,0,0,1,3.32,4.92"/><path class="cls-5" d="M142.83,113.73l-4.36-4.36-.05,0a24.21,24.21,0,0,0,2.33-5.61v0h6.17a2.85,2.85,0,0,0,2.84-2.85V94.18a2.84,2.84,0,0,0-2.84-2.84h-6.17v0a24,24,0,0,0-2.33-5.61l.05,0,4.36-4.36a2.85,2.85,0,0,0,0-4L140.41,75,138,72.62a2.84,2.84,0,0,0-4,0L129.62,77l0,0a23.37,23.37,0,0,0-5.61-2.33h0V68.53a2.86,2.86,0,0,0-2.85-2.85h-6.83a2.85,2.85,0,0,0-2.84,2.85V74.7h0A23.2,23.2,0,0,0,106,77l0,0-4.36-4.36a2.85,2.85,0,0,0-4,0L95.28,75l-2.41,2.41a2.85,2.85,0,0,0,0,4l4.36,4.36,0,0A23.2,23.2,0,0,0,95,91.39v0H88.78a2.85,2.85,0,0,0-2.85,2.84V101a2.86,2.86,0,0,0,2.85,2.85H95v0a23.37,23.37,0,0,0,2.33,5.61l0,0-4.36,4.36a2.84,2.84,0,0,0,0,4l2.41,2.41,2.41,2.42a2.85,2.85,0,0,0,4,0l4.36-4.36,0,0a24,24,0,0,0,5.61,2.33h0v6.17a2.84,2.84,0,0,0,2.84,2.84h6.83a2.85,2.85,0,0,0,2.85-2.84V120.5h-.06a24.1,24.1,0,0,0,5.62-2.33l0,0,4.36,4.36a2.84,2.84,0,0,0,4,0l2.41-2.42,2.42-2.41A2.84,2.84,0,0,0,142.83,113.73Zm-33.45-7.67a12,12,0,1,1,16.93,0A12,12,0,0,1,109.38,106.06Z"/><path class="cls-6" d="M142.83,113.73l-4.36-4.36-.05,0a24.21,24.21,0,0,0,2.33-5.61v0h6.17a2.85,2.85,0,0,0,2.84-2.85V94.18a2.84,2.84,0,0,0-2.84-2.84h-6.17v0a24,24,0,0,0-2.33-5.61l.05,0,4.36-4.36a2.85,2.85,0,0,0,0-4L140.41,75,138,72.62a2.84,2.84,0,0,0-4,0L129.62,77l0,0a23.37,23.37,0,0,0-5.61-2.33h0V68.53a2.86,2.86,0,0,0-2.85-2.85h-6.83a2.85,2.85,0,0,0-2.84,2.85V74.7h0A23.2,23.2,0,0,0,106,77l0,0-4.36-4.36a2.85,2.85,0,0,0-4,0L95.28,75l-2.41,2.41a2.85,2.85,0,0,0,0,4l4.36,4.36,0,0A23.2,23.2,0,0,0,95,91.39v0H88.78a2.85,2.85,0,0,0-2.85,2.84V101a2.86,2.86,0,0,0,2.85,2.85H95v0a23.37,23.37,0,0,0,2.33,5.61l0,0-4.36,4.36a2.84,2.84,0,0,0,0,4l2.41,2.41,2.41,2.42a2.85,2.85,0,0,0,4,0l4.36-4.36,0,0a24,24,0,0,0,5.61,2.33h0v6.17a2.84,2.84,0,0,0,2.84,2.84h6.83a2.85,2.85,0,0,0,2.85-2.84V120.5h-.06a24.1,24.1,0,0,0,5.62-2.33l0,0,4.36,4.36a2.84,2.84,0,0,0,4,0l2.41-2.42,2.42-2.41A2.84,2.84,0,0,0,142.83,113.73Zm-33.45-7.67a12,12,0,1,1,16.93,0A12,12,0,0,1,109.38,106.06Z"/></g></svg>