<svg id="Layer_2" data-name="Layer 2" xmlns="http://www.w3.org/2000/svg" xmlns:xlink="http://www.w3.org/1999/xlink" viewBox="0 0 100 100"><defs><style>.cls-1{fill:none;stroke-linecap:round;stroke-linejoin:round;stroke-width:3px;stroke:url(#linear-gradient);}</style><linearGradient id="linear-gradient" x1="9.99" y1="50" x2="90.01" y2="50" gradientTransform="translate(-20.71 50) rotate(-45)" gradientUnits="userSpaceOnUse"><stop offset="0" stop-color="#80cfff"/><stop offset="1" stop-color="#83ffde"/></linearGradient></defs><title>problem statement</title><path class="cls-1" d="M64,22.77a9.32,9.32,0,0,0-2.67,5.49L50,17,38.7,28.28A9.3,9.3,0,0,1,44.23,31,9.38,9.38,0,0,1,31,44.23a9.3,9.3,0,0,1-2.68-5.53L17,50,28.26,61.29A9.38,9.38,0,1,0,38.71,71.74L50,83,61.3,71.72A9.3,9.3,0,0,1,55.77,69,9.38,9.38,0,1,1,69,55.77a9.3,9.3,0,0,1,2.68,5.53L83,50,71.74,38.71A9.38,9.38,0,1,0,64,22.77Z"/></svg>