<svg id="Layer_2" data-name="Layer 2" xmlns="http://www.w3.org/2000/svg" xmlns:xlink="http://www.w3.org/1999/xlink" viewBox="0 0 100 100"><defs><style>.cls-1,.cls-2{fill:none;stroke-linecap:round;stroke-linejoin:round;stroke-width:3px;}.cls-1{stroke:url(#linear-gradient);}.cls-2{stroke:url(#linear-gradient-2);}</style><linearGradient id="linear-gradient" x1="16.96" y1="24.63" x2="70.34" y2="78.01" gradientUnits="userSpaceOnUse"><stop offset="0" stop-color="#80cfff"/><stop offset="1" stop-color="#83ffde"/></linearGradient><linearGradient id="linear-gradient-2" x1="44.76" y1="31.08" x2="66.06" y2="52.37" xlink:href="#linear-gradient"/></defs><title>register</title><path class="cls-1" d="M74.35,52.58v14A12.78,12.78,0,0,1,61.57,79.37H28.38A12.78,12.78,0,0,1,15.6,66.59V33.41A12.78,12.78,0,0,1,28.38,20.63H61.57"/><path class="cls-2" d="M82.76,25.92l.1.1a5.26,5.26,0,0,1,0,7.43L47.14,69.17a5.24,5.24,0,0,1-7.43,0L28,57.43A5.26,5.26,0,0,1,28,50h0a5.24,5.24,0,0,1,7.43,0l4.23,4.22a5.26,5.26,0,0,0,7.43,0l28.28-28.3A5.26,5.26,0,0,1,82.76,25.92Z"/></svg>