<svg id="Layer_2" data-name="Layer 2" xmlns="http://www.w3.org/2000/svg" xmlns:xlink="http://www.w3.org/1999/xlink" viewBox="0 0 100 100"><defs><style>.cls-1,.cls-2,.cls-3,.cls-4,.cls-5,.cls-6{fill:none;stroke-linecap:round;stroke-linejoin:round;stroke-width:3px;}.cls-1{stroke:url(#linear-gradient);}.cls-2{stroke:url(#linear-gradient-2);}.cls-3{stroke:url(#linear-gradient-3);}.cls-4{stroke:url(#linear-gradient-4);}.cls-5{stroke:url(#linear-gradient-5);}.cls-6{stroke:url(#linear-gradient-6);}</style><linearGradient id="linear-gradient" x1="122.45" y1="75" x2="95.96" y2="101.49" gradientTransform="translate(151.44 154.52) rotate(180)" gradientUnits="userSpaceOnUse"><stop offset="0" stop-color="#80cfff"/><stop offset="1" stop-color="#83ffde"/></linearGradient><linearGradient id="linear-gradient-2" x1="57.56" y1="9.42" x2="28.52" y2="38.46" gradientTransform="matrix(1, 0, 0, 1, 0, 0)" xlink:href="#linear-gradient"/><linearGradient id="linear-gradient-3" x1="96.87" y1="89.18" x2="66.27" y2="119.78" xlink:href="#linear-gradient"/><linearGradient id="linear-gradient-4" x1="57.07" y1="33.8" x2="42.46" y2="48.41" gradientTransform="matrix(1, 0, 0, 1, 0, 0)" xlink:href="#linear-gradient"/><linearGradient id="linear-gradient-5" x1="57.07" y1="41.72" x2="42.46" y2="56.33" gradientTransform="matrix(1, 0, 0, 1, 0, 0)" xlink:href="#linear-gradient"/><linearGradient id="linear-gradient-6" x1="57.07" y1="49.65" x2="42.46" y2="64.26" gradientTransform="matrix(1, 0, 0, 1, 0, 0)" xlink:href="#linear-gradient"/></defs><title>rules</title><path class="cls-1" d="M30,29.71V76.06a5.76,5.76,0,0,0,5.77,5.76H75.45"/><path class="cls-2" d="M64.19,29.71H24.28a5.77,5.77,0,1,1,0-11.53H64.19"/><path class="cls-3" d="M75.72,70.29a5.76,5.76,0,0,1,5.76,5.92,5.94,5.94,0,0,1-6,5.61h0A5.49,5.49,0,0,1,70,76.32V24.21a6,6,0,0,0-5.61-6,5.77,5.77,0,1,0-.16,11.53"/><line class="cls-4" x1="37.27" y1="41.1" x2="62.25" y2="41.1"/><line class="cls-5" x1="37.27" y1="49.03" x2="62.25" y2="49.03"/><line class="cls-6" x1="37.27" y1="56.95" x2="62.25" y2="56.95"/></svg>